<?xml version="1.0" encoding="utf-8" standalone="no"?>
<!DOCTYPE svg PUBLIC "-//W3C//DTD SVG 1.1//EN"
  "http://www.w3.org/Graphics/SVG/1.1/DTD/svg11.dtd">
<svg xmlns:xlink="http://www.w3.org/1999/xlink" width="460.8pt" height="345.6pt" viewBox="0 0 460.8 345.6" xmlns="http://www.w3.org/2000/svg" version="1.1">
 <metadata>
  <rdf:RDF xmlns:dc="http://purl.org/dc/elements/1.1/" xmlns:cc="http://creativecommons.org/ns#" xmlns:rdf="http://www.w3.org/1999/02/22-rdf-syntax-ns#">
   <cc:Work>
    <dc:type rdf:resource="http://purl.org/dc/dcmitype/StillImage"/>
    <dc:date>2023-12-28T17:21:09.652641</dc:date>
    <dc:format>image/svg+xml</dc:format>
    <dc:creator>
     <cc:Agent>
      <dc:title>Matplotlib v3.8.0, https://matplotlib.org/</dc:title>
     </cc:Agent>
    </dc:creator>
   </cc:Work>
  </rdf:RDF>
 </metadata>
 <defs>
  <style type="text/css">*{stroke-linejoin: round; stroke-linecap: butt}</style>
 </defs>
 <g id="figure_1">
  <g id="patch_1">
   <path d="M 0 345.6 
L 460.8 345.6 
L 460.8 0 
L 0 0 
z
" style="fill: #ffffff"/>
  </g>
  <g id="axes_1">
   <g id="patch_2">
    <path d="M 57.6 307.584 
L 414.72 307.584 
L 414.72 41.472 
L 57.6 41.472 
z
" style="fill: #ffffff"/>
   </g>
   <g id="matplotlib.axis_1">
    <g id="xtick_1">
     <g id="line2d_1">
      <defs>
       <path id="m8cc0b03946" d="M 0 0 
L 0 3.5 
" style="stroke: #000000; stroke-width: 0.8"/>
      </defs>
      <g>
       <use xlink:href="#m8cc0b03946" x="57.6" y="307.584" style="stroke: #000000; stroke-width: 0.8"/>
      </g>
     </g>
     <g id="text_1">
      <!-- 0.0 -->
      <g transform="translate(49.648438 322.182437) scale(0.1 -0.1)">
       <defs>
        <path id="DejaVuSans-30" d="M 2034 4250 
Q 1547 4250 1301 3770 
Q 1056 3291 1056 2328 
Q 1056 1369 1301 889 
Q 1547 409 2034 409 
Q 2525 409 2770 889 
Q 3016 1369 3016 2328 
Q 3016 3291 2770 3770 
Q 2525 4250 2034 4250 
z
M 2034 4750 
Q 2819 4750 3233 4129 
Q 3647 3509 3647 2328 
Q 3647 1150 3233 529 
Q 2819 -91 2034 -91 
Q 1250 -91 836 529 
Q 422 1150 422 2328 
Q 422 3509 836 4129 
Q 1250 4750 2034 4750 
z
" transform="scale(0.015625)"/>
        <path id="DejaVuSans-2e" d="M 684 794 
L 1344 794 
L 1344 0 
L 684 0 
L 684 794 
z
" transform="scale(0.015625)"/>
       </defs>
       <use xlink:href="#DejaVuSans-30"/>
       <use xlink:href="#DejaVuSans-2e" x="63.623047"/>
       <use xlink:href="#DejaVuSans-30" x="95.410156"/>
      </g>
     </g>
    </g>
    <g id="xtick_2">
     <g id="line2d_2">
      <g>
       <use xlink:href="#m8cc0b03946" x="129.024" y="307.584" style="stroke: #000000; stroke-width: 0.8"/>
      </g>
     </g>
     <g id="text_2">
      <!-- 0.2 -->
      <g transform="translate(121.072438 322.182437) scale(0.1 -0.1)">
       <defs>
        <path id="DejaVuSans-32" d="M 1228 531 
L 3431 531 
L 3431 0 
L 469 0 
L 469 531 
Q 828 903 1448 1529 
Q 2069 2156 2228 2338 
Q 2531 2678 2651 2914 
Q 2772 3150 2772 3378 
Q 2772 3750 2511 3984 
Q 2250 4219 1831 4219 
Q 1534 4219 1204 4116 
Q 875 4013 500 3803 
L 500 4441 
Q 881 4594 1212 4672 
Q 1544 4750 1819 4750 
Q 2544 4750 2975 4387 
Q 3406 4025 3406 3419 
Q 3406 3131 3298 2873 
Q 3191 2616 2906 2266 
Q 2828 2175 2409 1742 
Q 1991 1309 1228 531 
z
" transform="scale(0.015625)"/>
       </defs>
       <use xlink:href="#DejaVuSans-30"/>
       <use xlink:href="#DejaVuSans-2e" x="63.623047"/>
       <use xlink:href="#DejaVuSans-32" x="95.410156"/>
      </g>
     </g>
    </g>
    <g id="xtick_3">
     <g id="line2d_3">
      <g>
       <use xlink:href="#m8cc0b03946" x="200.448" y="307.584" style="stroke: #000000; stroke-width: 0.8"/>
      </g>
     </g>
     <g id="text_3">
      <!-- 0.4 -->
      <g transform="translate(192.496438 322.182437) scale(0.1 -0.1)">
       <defs>
        <path id="DejaVuSans-34" d="M 2419 4116 
L 825 1625 
L 2419 1625 
L 2419 4116 
z
M 2253 4666 
L 3047 4666 
L 3047 1625 
L 3713 1625 
L 3713 1100 
L 3047 1100 
L 3047 0 
L 2419 0 
L 2419 1100 
L 313 1100 
L 313 1709 
L 2253 4666 
z
" transform="scale(0.015625)"/>
       </defs>
       <use xlink:href="#DejaVuSans-30"/>
       <use xlink:href="#DejaVuSans-2e" x="63.623047"/>
       <use xlink:href="#DejaVuSans-34" x="95.410156"/>
      </g>
     </g>
    </g>
    <g id="xtick_4">
     <g id="line2d_4">
      <g>
       <use xlink:href="#m8cc0b03946" x="271.872" y="307.584" style="stroke: #000000; stroke-width: 0.8"/>
      </g>
     </g>
     <g id="text_4">
      <!-- 0.6 -->
      <g transform="translate(263.920438 322.182437) scale(0.1 -0.1)">
       <defs>
        <path id="DejaVuSans-36" d="M 2113 2584 
Q 1688 2584 1439 2293 
Q 1191 2003 1191 1497 
Q 1191 994 1439 701 
Q 1688 409 2113 409 
Q 2538 409 2786 701 
Q 3034 994 3034 1497 
Q 3034 2003 2786 2293 
Q 2538 2584 2113 2584 
z
M 3366 4563 
L 3366 3988 
Q 3128 4100 2886 4159 
Q 2644 4219 2406 4219 
Q 1781 4219 1451 3797 
Q 1122 3375 1075 2522 
Q 1259 2794 1537 2939 
Q 1816 3084 2150 3084 
Q 2853 3084 3261 2657 
Q 3669 2231 3669 1497 
Q 3669 778 3244 343 
Q 2819 -91 2113 -91 
Q 1303 -91 875 529 
Q 447 1150 447 2328 
Q 447 3434 972 4092 
Q 1497 4750 2381 4750 
Q 2619 4750 2861 4703 
Q 3103 4656 3366 4563 
z
" transform="scale(0.015625)"/>
       </defs>
       <use xlink:href="#DejaVuSans-30"/>
       <use xlink:href="#DejaVuSans-2e" x="63.623047"/>
       <use xlink:href="#DejaVuSans-36" x="95.410156"/>
      </g>
     </g>
    </g>
    <g id="xtick_5">
     <g id="line2d_5">
      <g>
       <use xlink:href="#m8cc0b03946" x="343.296" y="307.584" style="stroke: #000000; stroke-width: 0.8"/>
      </g>
     </g>
     <g id="text_5">
      <!-- 0.8 -->
      <g transform="translate(335.344438 322.182437) scale(0.1 -0.1)">
       <defs>
        <path id="DejaVuSans-38" d="M 2034 2216 
Q 1584 2216 1326 1975 
Q 1069 1734 1069 1313 
Q 1069 891 1326 650 
Q 1584 409 2034 409 
Q 2484 409 2743 651 
Q 3003 894 3003 1313 
Q 3003 1734 2745 1975 
Q 2488 2216 2034 2216 
z
M 1403 2484 
Q 997 2584 770 2862 
Q 544 3141 544 3541 
Q 544 4100 942 4425 
Q 1341 4750 2034 4750 
Q 2731 4750 3128 4425 
Q 3525 4100 3525 3541 
Q 3525 3141 3298 2862 
Q 3072 2584 2669 2484 
Q 3125 2378 3379 2068 
Q 3634 1759 3634 1313 
Q 3634 634 3220 271 
Q 2806 -91 2034 -91 
Q 1263 -91 848 271 
Q 434 634 434 1313 
Q 434 1759 690 2068 
Q 947 2378 1403 2484 
z
M 1172 3481 
Q 1172 3119 1398 2916 
Q 1625 2713 2034 2713 
Q 2441 2713 2670 2916 
Q 2900 3119 2900 3481 
Q 2900 3844 2670 4047 
Q 2441 4250 2034 4250 
Q 1625 4250 1398 4047 
Q 1172 3844 1172 3481 
z
" transform="scale(0.015625)"/>
       </defs>
       <use xlink:href="#DejaVuSans-30"/>
       <use xlink:href="#DejaVuSans-2e" x="63.623047"/>
       <use xlink:href="#DejaVuSans-38" x="95.410156"/>
      </g>
     </g>
    </g>
    <g id="xtick_6">
     <g id="line2d_6">
      <g>
       <use xlink:href="#m8cc0b03946" x="414.72" y="307.584" style="stroke: #000000; stroke-width: 0.8"/>
      </g>
     </g>
     <g id="text_6">
      <!-- 1.0 -->
      <g transform="translate(406.768438 322.182437) scale(0.1 -0.1)">
       <defs>
        <path id="DejaVuSans-31" d="M 794 531 
L 1825 531 
L 1825 4091 
L 703 3866 
L 703 4441 
L 1819 4666 
L 2450 4666 
L 2450 531 
L 3481 531 
L 3481 0 
L 794 0 
L 794 531 
z
" transform="scale(0.015625)"/>
       </defs>
       <use xlink:href="#DejaVuSans-31"/>
       <use xlink:href="#DejaVuSans-2e" x="63.623047"/>
       <use xlink:href="#DejaVuSans-30" x="95.410156"/>
      </g>
     </g>
    </g>
    <g id="text_7">
     <!-- recall -->
     <g transform="translate(222.549062 335.860562) scale(0.1 -0.1)">
      <defs>
       <path id="DejaVuSans-72" d="M 2631 2963 
Q 2534 3019 2420 3045 
Q 2306 3072 2169 3072 
Q 1681 3072 1420 2755 
Q 1159 2438 1159 1844 
L 1159 0 
L 581 0 
L 581 3500 
L 1159 3500 
L 1159 2956 
Q 1341 3275 1631 3429 
Q 1922 3584 2338 3584 
Q 2397 3584 2469 3576 
Q 2541 3569 2628 3553 
L 2631 2963 
z
" transform="scale(0.015625)"/>
       <path id="DejaVuSans-65" d="M 3597 1894 
L 3597 1613 
L 953 1613 
Q 991 1019 1311 708 
Q 1631 397 2203 397 
Q 2534 397 2845 478 
Q 3156 559 3463 722 
L 3463 178 
Q 3153 47 2828 -22 
Q 2503 -91 2169 -91 
Q 1331 -91 842 396 
Q 353 884 353 1716 
Q 353 2575 817 3079 
Q 1281 3584 2069 3584 
Q 2775 3584 3186 3129 
Q 3597 2675 3597 1894 
z
M 3022 2063 
Q 3016 2534 2758 2815 
Q 2500 3097 2075 3097 
Q 1594 3097 1305 2825 
Q 1016 2553 972 2059 
L 3022 2063 
z
" transform="scale(0.015625)"/>
       <path id="DejaVuSans-63" d="M 3122 3366 
L 3122 2828 
Q 2878 2963 2633 3030 
Q 2388 3097 2138 3097 
Q 1578 3097 1268 2742 
Q 959 2388 959 1747 
Q 959 1106 1268 751 
Q 1578 397 2138 397 
Q 2388 397 2633 464 
Q 2878 531 3122 666 
L 3122 134 
Q 2881 22 2623 -34 
Q 2366 -91 2075 -91 
Q 1284 -91 818 406 
Q 353 903 353 1747 
Q 353 2603 823 3093 
Q 1294 3584 2113 3584 
Q 2378 3584 2631 3529 
Q 2884 3475 3122 3366 
z
" transform="scale(0.015625)"/>
       <path id="DejaVuSans-61" d="M 2194 1759 
Q 1497 1759 1228 1600 
Q 959 1441 959 1056 
Q 959 750 1161 570 
Q 1363 391 1709 391 
Q 2188 391 2477 730 
Q 2766 1069 2766 1631 
L 2766 1759 
L 2194 1759 
z
M 3341 1997 
L 3341 0 
L 2766 0 
L 2766 531 
Q 2569 213 2275 61 
Q 1981 -91 1556 -91 
Q 1019 -91 701 211 
Q 384 513 384 1019 
Q 384 1609 779 1909 
Q 1175 2209 1959 2209 
L 2766 2209 
L 2766 2266 
Q 2766 2663 2505 2880 
Q 2244 3097 1772 3097 
Q 1472 3097 1187 3025 
Q 903 2953 641 2809 
L 641 3341 
Q 956 3463 1253 3523 
Q 1550 3584 1831 3584 
Q 2591 3584 2966 3190 
Q 3341 2797 3341 1997 
z
" transform="scale(0.015625)"/>
       <path id="DejaVuSans-6c" d="M 603 4863 
L 1178 4863 
L 1178 0 
L 603 0 
L 603 4863 
z
" transform="scale(0.015625)"/>
      </defs>
      <use xlink:href="#DejaVuSans-72"/>
      <use xlink:href="#DejaVuSans-65" x="38.863281"/>
      <use xlink:href="#DejaVuSans-63" x="100.386719"/>
      <use xlink:href="#DejaVuSans-61" x="155.367188"/>
      <use xlink:href="#DejaVuSans-6c" x="216.646484"/>
      <use xlink:href="#DejaVuSans-6c" x="244.429688"/>
     </g>
    </g>
   </g>
   <g id="matplotlib.axis_2">
    <g id="ytick_1">
     <g id="line2d_7">
      <defs>
       <path id="m8fe2865522" d="M 0 0 
L -3.5 0 
" style="stroke: #000000; stroke-width: 0.8"/>
      </defs>
      <g>
       <use xlink:href="#m8fe2865522" x="57.6" y="307.584" style="stroke: #000000; stroke-width: 0.8"/>
      </g>
     </g>
     <g id="text_8">
      <!-- 0.0 -->
      <g transform="translate(34.696875 311.383219) scale(0.1 -0.1)">
       <use xlink:href="#DejaVuSans-30"/>
       <use xlink:href="#DejaVuSans-2e" x="63.623047"/>
       <use xlink:href="#DejaVuSans-30" x="95.410156"/>
      </g>
     </g>
    </g>
    <g id="ytick_2">
     <g id="line2d_8">
      <g>
       <use xlink:href="#m8fe2865522" x="57.6" y="254.3616" style="stroke: #000000; stroke-width: 0.8"/>
      </g>
     </g>
     <g id="text_9">
      <!-- 0.2 -->
      <g transform="translate(34.696875 258.160819) scale(0.1 -0.1)">
       <use xlink:href="#DejaVuSans-30"/>
       <use xlink:href="#DejaVuSans-2e" x="63.623047"/>
       <use xlink:href="#DejaVuSans-32" x="95.410156"/>
      </g>
     </g>
    </g>
    <g id="ytick_3">
     <g id="line2d_9">
      <g>
       <use xlink:href="#m8fe2865522" x="57.6" y="201.1392" style="stroke: #000000; stroke-width: 0.8"/>
      </g>
     </g>
     <g id="text_10">
      <!-- 0.4 -->
      <g transform="translate(34.696875 204.938419) scale(0.1 -0.1)">
       <use xlink:href="#DejaVuSans-30"/>
       <use xlink:href="#DejaVuSans-2e" x="63.623047"/>
       <use xlink:href="#DejaVuSans-34" x="95.410156"/>
      </g>
     </g>
    </g>
    <g id="ytick_4">
     <g id="line2d_10">
      <g>
       <use xlink:href="#m8fe2865522" x="57.6" y="147.9168" style="stroke: #000000; stroke-width: 0.8"/>
      </g>
     </g>
     <g id="text_11">
      <!-- 0.6 -->
      <g transform="translate(34.696875 151.716019) scale(0.1 -0.1)">
       <use xlink:href="#DejaVuSans-30"/>
       <use xlink:href="#DejaVuSans-2e" x="63.623047"/>
       <use xlink:href="#DejaVuSans-36" x="95.410156"/>
      </g>
     </g>
    </g>
    <g id="ytick_5">
     <g id="line2d_11">
      <g>
       <use xlink:href="#m8fe2865522" x="57.6" y="94.6944" style="stroke: #000000; stroke-width: 0.8"/>
      </g>
     </g>
     <g id="text_12">
      <!-- 0.8 -->
      <g transform="translate(34.696875 98.493619) scale(0.1 -0.1)">
       <use xlink:href="#DejaVuSans-30"/>
       <use xlink:href="#DejaVuSans-2e" x="63.623047"/>
       <use xlink:href="#DejaVuSans-38" x="95.410156"/>
      </g>
     </g>
    </g>
    <g id="ytick_6">
     <g id="line2d_12">
      <g>
       <use xlink:href="#m8fe2865522" x="57.6" y="41.472" style="stroke: #000000; stroke-width: 0.8"/>
      </g>
     </g>
     <g id="text_13">
      <!-- 1.0 -->
      <g transform="translate(34.696875 45.271219) scale(0.1 -0.1)">
       <use xlink:href="#DejaVuSans-31"/>
       <use xlink:href="#DejaVuSans-2e" x="63.623047"/>
       <use xlink:href="#DejaVuSans-30" x="95.410156"/>
      </g>
     </g>
    </g>
    <g id="text_14">
     <!-- precision -->
     <g transform="translate(28.617187 197.081906) rotate(-90) scale(0.1 -0.1)">
      <defs>
       <path id="DejaVuSans-70" d="M 1159 525 
L 1159 -1331 
L 581 -1331 
L 581 3500 
L 1159 3500 
L 1159 2969 
Q 1341 3281 1617 3432 
Q 1894 3584 2278 3584 
Q 2916 3584 3314 3078 
Q 3713 2572 3713 1747 
Q 3713 922 3314 415 
Q 2916 -91 2278 -91 
Q 1894 -91 1617 61 
Q 1341 213 1159 525 
z
M 3116 1747 
Q 3116 2381 2855 2742 
Q 2594 3103 2138 3103 
Q 1681 3103 1420 2742 
Q 1159 2381 1159 1747 
Q 1159 1113 1420 752 
Q 1681 391 2138 391 
Q 2594 391 2855 752 
Q 3116 1113 3116 1747 
z
" transform="scale(0.015625)"/>
       <path id="DejaVuSans-69" d="M 603 3500 
L 1178 3500 
L 1178 0 
L 603 0 
L 603 3500 
z
M 603 4863 
L 1178 4863 
L 1178 4134 
L 603 4134 
L 603 4863 
z
" transform="scale(0.015625)"/>
       <path id="DejaVuSans-73" d="M 2834 3397 
L 2834 2853 
Q 2591 2978 2328 3040 
Q 2066 3103 1784 3103 
Q 1356 3103 1142 2972 
Q 928 2841 928 2578 
Q 928 2378 1081 2264 
Q 1234 2150 1697 2047 
L 1894 2003 
Q 2506 1872 2764 1633 
Q 3022 1394 3022 966 
Q 3022 478 2636 193 
Q 2250 -91 1575 -91 
Q 1294 -91 989 -36 
Q 684 19 347 128 
L 347 722 
Q 666 556 975 473 
Q 1284 391 1588 391 
Q 1994 391 2212 530 
Q 2431 669 2431 922 
Q 2431 1156 2273 1281 
Q 2116 1406 1581 1522 
L 1381 1569 
Q 847 1681 609 1914 
Q 372 2147 372 2553 
Q 372 3047 722 3315 
Q 1072 3584 1716 3584 
Q 2034 3584 2315 3537 
Q 2597 3491 2834 3397 
z
" transform="scale(0.015625)"/>
       <path id="DejaVuSans-6f" d="M 1959 3097 
Q 1497 3097 1228 2736 
Q 959 2375 959 1747 
Q 959 1119 1226 758 
Q 1494 397 1959 397 
Q 2419 397 2687 759 
Q 2956 1122 2956 1747 
Q 2956 2369 2687 2733 
Q 2419 3097 1959 3097 
z
M 1959 3584 
Q 2709 3584 3137 3096 
Q 3566 2609 3566 1747 
Q 3566 888 3137 398 
Q 2709 -91 1959 -91 
Q 1206 -91 779 398 
Q 353 888 353 1747 
Q 353 2609 779 3096 
Q 1206 3584 1959 3584 
z
" transform="scale(0.015625)"/>
       <path id="DejaVuSans-6e" d="M 3513 2113 
L 3513 0 
L 2938 0 
L 2938 2094 
Q 2938 2591 2744 2837 
Q 2550 3084 2163 3084 
Q 1697 3084 1428 2787 
Q 1159 2491 1159 1978 
L 1159 0 
L 581 0 
L 581 3500 
L 1159 3500 
L 1159 2956 
Q 1366 3272 1645 3428 
Q 1925 3584 2291 3584 
Q 2894 3584 3203 3211 
Q 3513 2838 3513 2113 
z
" transform="scale(0.015625)"/>
      </defs>
      <use xlink:href="#DejaVuSans-70"/>
      <use xlink:href="#DejaVuSans-72" x="63.476562"/>
      <use xlink:href="#DejaVuSans-65" x="102.339844"/>
      <use xlink:href="#DejaVuSans-63" x="163.863281"/>
      <use xlink:href="#DejaVuSans-69" x="218.84375"/>
      <use xlink:href="#DejaVuSans-73" x="246.626953"/>
      <use xlink:href="#DejaVuSans-69" x="298.726562"/>
      <use xlink:href="#DejaVuSans-6f" x="326.509766"/>
      <use xlink:href="#DejaVuSans-6e" x="387.691406"/>
     </g>
    </g>
   </g>
   <g id="line2d_13">
    <path d="M 57.617163 41.472 
L 72.634464 41.472 
L 72.634464 41.616548 
L 72.737439 41.616548 
L 116.639446 41.703872 
L 116.639446 41.746696 
L 116.742422 41.746696 
L 152.955571 41.85462 
L 152.955571 41.881403 
L 153.058547 41.881403 
L 162.343529 41.950775 
L 162.343529 41.993533 
L 162.446505 41.993533 
L 167.869896 42.091826 
L 167.869896 42.121846 
L 167.972872 42.121846 
L 174.889412 42.209798 
L 174.889412 42.244234 
L 174.992388 42.244234 
L 184.740761 42.33135 
L 184.740761 42.365713 
L 184.843737 42.365713 
L 187.040554 42.456298 
L 187.040554 42.483833 
L 187.143529 42.483833 
L 190.764844 42.565003 
L 190.764844 42.595985 
L 190.86782 42.595985 
L 194.008581 42.70508 
L 194.008581 42.727401 
L 194.111557 42.727401 
L 202.521246 42.820276 
L 202.572734 42.891429 
L 202.624221 42.891429 
L 209.678062 42.994858 
L 209.678062 43.020548 
L 209.781038 43.020548 
L 210.776471 43.131311 
L 210.776471 43.148991 
L 210.879446 43.148991 
L 215.032803 43.229942 
L 215.032803 43.258567 
L 215.032803 43.279943 
L 215.135779 43.279943 
L 217.126644 43.376455 
L 217.126644 43.402199 
L 217.229619 43.402199 
L 224.60955 43.507325 
L 224.60955 43.519223 
L 224.712526 43.519223 
L 227.698824 43.629233 
L 227.698824 43.651938 
L 227.801799 43.651938 
L 230.582145 43.74937 
L 230.667958 43.789867 
L 230.685121 43.789867 
L 236.468927 43.90086 
L 236.571903 44.018888 
L 238.803045 44.117149 
L 238.803045 44.139352 
L 238.906021 44.139352 
L 240.090242 44.245806 
L 240.176055 44.36291 
L 240.193218 44.36291 
L 241.960969 44.460371 
L 241.960969 44.479606 
L 242.063945 44.479606 
L 242.887751 44.590119 
L 242.990727 44.627574 
L 245.891211 44.730416 
L 245.891211 44.751718 
L 245.994187 44.751718 
L 246.646367 44.858923 
L 246.749343 44.921512 
L 248.276817 45.017009 
L 248.311142 45.060451 
L 248.379792 45.060451 
L 249.564014 45.155617 
L 249.564014 45.175488 
L 249.66699 45.175488 
L 250.628097 45.2736 
L 250.679585 45.302453 
L 250.731073 45.302453 
L 252.464498 45.397637 
L 252.464498 45.416963 
L 252.567474 45.416963 
L 253.614394 45.510606 
L 253.700208 45.543159 
L 253.71737 45.543159 
L 255.588097 45.649868 
L 255.67391 45.6906 
L 255.691073 45.6906 
L 257.287197 45.792073 
L 257.390173 45.833018 
L 257.973702 45.909815 
L 257.973702 45.931852 
L 257.973702 45.944846 
L 258.076678 45.944846 
L 259.98173 46.041018 
L 260.033218 46.094073 
L 260.084706 46.094073 
L 261.766644 46.196142 
L 261.766644 46.21068 
L 261.869619 46.21068 
L 262.882215 46.321123 
L 262.933702 46.377793 
L 262.98519 46.377793 
L 263.96346 46.488065 
L 263.96346 46.500752 
L 264.066436 46.500752 
L 265.010381 46.590369 
L 265.010381 46.611548 
L 265.010381 46.649276 
L 265.113356 46.649276 
L 265.817024 46.739629 
L 265.817024 46.772779 
L 265.92 46.772779 
L 266.89827 46.880607 
L 266.949758 46.938592 
L 267.001246 46.938592 
L 268.219792 47.034577 
L 268.236955 47.072571 
L 268.322768 47.072571 
L 268.906298 47.182558 
L 268.957785 47.251541 
L 269.009273 47.251541 
L 269.936055 47.361295 
L 269.936055 47.388864 
L 270.039031 47.388864 
L 271.583668 47.480173 
L 271.583668 47.517157 
L 271.686644 47.517157 
L 272.493287 47.617678 
L 272.561938 47.672225 
L 272.596263 47.672225 
L 273.969273 47.737824 
L 273.969273 47.778069 
L 273.969273 47.794271 
L 274.072249 47.794271 
L 274.758754 47.895959 
L 274.758754 47.906062 
L 274.86173 47.906062 
L 276.097439 48.01674 
L 276.131765 48.070323 
L 276.200415 48.070323 
L 277.367474 48.157722 
L 277.367474 48.177471 
L 277.47045 48.213369 
L 277.916678 48.318689 
L 277.968166 48.352294 
L 278.019654 48.352294 
L 279.186713 48.456462 
L 279.238201 48.491261 
L 279.289689 48.491261 
L 281.675294 48.593447 
L 281.726782 48.644403 
L 281.77827 48.644403 
L 282.670727 48.754899 
L 282.670727 48.769224 
L 282.773702 48.769224 
L 283.700484 48.875455 
L 283.700484 48.890713 
L 283.80346 48.890713 
L 284.301176 48.98962 
L 284.301176 49.004764 
L 284.404152 49.004764 
L 285.245121 49.110833 
L 285.279446 49.156351 
L 285.348097 49.156351 
L 286.566644 49.25611 
L 286.566644 49.270934 
L 286.669619 49.270934 
L 286.978547 49.37383 
L 287.012872 49.423131 
L 287.081522 49.423131 
L 287.956817 49.509198 
L 287.956817 49.527843 
L 288.059792 49.561036 
L 288.780623 49.63001 
L 288.780623 49.667131 
L 288.883599 49.694186 
L 289.467128 49.791578 
L 289.484291 49.823752 
L 289.570104 49.823752 
L 290.359585 49.926333 
L 290.359585 49.940495 
L 290.462561 49.940495 
L 291.097578 50.047099 
L 291.200554 50.077612 
L 292.02436 50.178447 
L 292.02436 50.191735 
L 292.127336 50.191735 
L 293.208581 50.281173 
L 293.208581 50.299294 
L 293.208581 50.307458 
L 293.311557 50.307458 
L 293.774948 50.387257 
L 293.774948 50.405319 
L 293.809273 50.455078 
L 293.877924 50.455078 
L 294.821869 50.564919 
L 294.873356 50.596371 
L 294.924844 50.596371 
L 295.697163 50.693611 
L 295.731488 50.814131 
L 295.800138 50.814131 
L 296.435156 50.915398 
L 296.435156 50.927289 
L 296.538131 50.927289 
L 297.31045 51.023891 
L 297.396263 51.100449 
L 297.413426 51.100449 
L 297.791003 51.199762 
L 297.876817 51.246646 
L 297.893979 51.246646 
L 298.185744 51.342894 
L 298.220069 51.408504 
L 298.28872 51.408504 
L 298.631972 51.518435 
L 298.68346 51.547997 
L 298.734948 51.547997 
L 299.198339 51.653234 
L 299.249827 51.698693 
L 299.301315 51.698693 
L 300.090796 51.808731 
L 300.090796 51.821202 
L 300.193772 51.821202 
L 300.296747 51.869825 
L 300.296747 51.921945 
L 300.365398 51.999468 
L 300.399723 51.999468 
L 301.61827 52.109293 
L 301.721246 52.169609 
L 302.184637 52.257661 
L 302.184637 52.27485 
L 302.236125 52.337002 
L 302.287612 52.337002 
L 303.300208 52.433013 
L 303.351696 52.507345 
L 303.403183 52.507345 
L 303.883737 52.612564 
L 303.952388 52.638407 
L 303.986713 52.638407 
L 304.312803 52.746881 
L 304.415779 52.841886 
L 304.844844 52.943716 
L 304.930657 53.000636 
L 304.94782 53.000636 
L 305.359723 53.106467 
L 305.462699 53.179097 
L 305.943253 53.282016 
L 306.011903 53.326128 
L 306.046228 53.326128 
L 306.269343 53.418096 
L 306.269343 53.434849 
L 306.32083 53.462817 
L 306.372318 53.462817 
L 306.57827 53.554469 
L 306.57827 53.571184 
L 306.681246 53.630023 
L 307.88263 53.727043 
L 307.985606 53.768006 
L 308.346021 53.87111 
L 308.414671 53.898544 
L 308.448997 53.898544 
L 309.066851 54.002248 
L 309.152664 54.057561 
L 309.169827 54.057561 
L 309.478754 54.147289 
L 309.478754 54.163734 
L 309.564567 54.190842 
L 309.58173 54.190842 
L 309.873495 54.292522 
L 309.959308 54.335888 
L 309.976471 54.335888 
L 310.251073 54.437974 
L 310.354048 54.479476 
L 310.662976 54.581135 
L 310.765952 54.63958 
L 311.21218 54.749368 
L 311.229343 54.805806 
L 311.315156 54.805806 
L 311.452457 54.867301 
L 311.452457 54.915969 
L 311.469619 54.941487 
L 311.555433 54.941487 
L 311.967336 55.051925 
L 312.070311 55.091704 
L 312.499377 55.202428 
L 312.568028 55.228508 
L 312.602353 55.228508 
L 313.443322 55.330942 
L 313.477647 55.435188 
L 313.546298 55.435188 
L 313.735087 55.540116 
L 313.838062 55.596912 
L 314.21564 55.690696 
L 314.21564 55.706642 
L 314.318616 55.794117 
L 314.782007 55.899557 
L 314.79917 55.924938 
L 314.884983 55.924938 
L 315.399862 56.025262 
L 315.434187 56.050499 
L 315.502837 56.050499 
L 315.811765 56.161302 
L 315.91474 56.294949 
L 316.257993 56.389339 
L 316.257993 56.405071 
L 316.257993 56.428101 
L 316.360969 56.428101 
L 316.652734 56.524901 
L 316.738547 56.62807 
L 316.755709 56.62807 
L 317.184775 56.71489 
L 317.184775 56.730525 
L 317.287751 56.750762 
L 317.287751 56.750762 
L 317.836955 56.819209 
L 317.836955 56.850373 
L 317.939931 56.935176 
L 318.386159 57.021858 
L 318.386159 57.037384 
L 318.420484 57.083026 
L 318.489135 57.083026 
L 318.986851 57.189476 
L 319.089827 57.360263 
L 319.536055 57.451504 
L 319.536055 57.466908 
L 319.536055 57.475412 
L 319.639031 57.475412 
L 320.068097 57.574735 
L 320.171073 57.629208 
L 320.308374 57.729594 
L 320.411349 57.829807 
L 320.600138 57.926826 
L 320.703114 58.023642 
L 321.235156 58.133434 
L 321.320969 58.201358 
L 321.338131 58.201358 
L 321.681384 58.304483 
L 321.78436 58.373139 
L 322.127612 58.474722 
L 322.196263 58.527977 
L 322.230588 58.527977 
L 322.419377 58.593147 
L 322.419377 58.638434 
L 322.50519 58.721642 
L 322.522353 58.721642 
L 322.796955 58.82643 
L 322.83128 58.969423 
L 322.899931 58.969423 
L 323.08872 59.04892 
L 323.08872 59.078927 
L 323.191696 59.146447 
L 323.620761 59.255523 
L 323.620761 59.261905 
L 323.723737 59.261905 
L 324.13564 59.372627 
L 324.221453 59.422542 
L 324.238616 59.422542 
L 324.581869 59.523221 
L 324.667682 59.599347 
L 324.684844 59.599347 
L 325.165398 59.708868 
L 325.216886 59.803736 
L 325.268374 59.803736 
L 325.337024 59.905031 
L 325.388512 59.984829 
L 325.44 59.984829 
L 325.817578 60.095406 
L 325.920554 60.156796 
L 326.280969 60.256562 
L 326.383945 60.466478 
L 326.572734 60.559937 
L 326.572734 60.574567 
L 326.641384 60.622867 
L 326.675709 60.622867 
L 327.104775 60.729278 
L 327.156263 60.837879 
L 327.207751 60.837879 
L 327.430865 60.940549 
L 327.430865 60.956992 
L 327.533841 60.956992 
L 327.774118 61.062779 
L 327.859931 61.170672 
L 327.877093 61.170672 
L 328.11737 61.271395 
L 328.168858 61.306629 
L 328.220346 61.306629 
L 328.649412 61.408577 
L 328.683737 61.441304 
L 328.752388 61.441304 
L 329.129965 61.548589 
L 329.198616 61.582315 
L 329.232941 61.582315 
L 329.559031 61.691484 
L 329.627682 61.725046 
L 329.662007 61.725046 
L 330.056747 61.829026 
L 330.142561 61.919548 
L 330.159723 61.919548 
L 330.245536 62.001612 
L 330.245536 62.030141 
L 330.348512 62.132198 
L 330.434325 62.187952 
L 330.434325 62.23065 
L 330.537301 62.36439 
L 330.640277 62.471922 
L 330.743253 62.548501 
L 330.880554 62.610804 
L 330.880554 62.653285 
L 330.983529 62.755428 
L 331.258131 62.838321 
L 331.258131 62.852437 
L 331.343945 62.937591 
L 331.361107 62.937591 
L 331.532734 63.001849 
L 331.532734 63.044094 
L 331.635709 63.091686 
L 331.790173 63.19418 
L 331.893149 63.337312 
L 332.219239 63.443291 
L 332.322215 63.531124 
L 332.579654 63.640387 
L 332.665467 63.715196 
L 332.68263 63.715196 
L 332.802768 63.819023 
L 332.905744 63.91884 
L 333.060208 64.022321 
L 333.128858 64.217522 
L 333.163183 64.217522 
L 333.266159 64.325737 
L 333.351972 64.37198 
L 333.369135 64.37198 
L 333.6609 64.475491 
L 333.763875 64.611518 
L 334.158616 64.699335 
L 334.158616 64.713091 
L 334.261592 64.798778 
L 334.690657 64.905609 
L 334.776471 64.951145 
L 334.793633 64.951145 
L 335.016747 65.017352 
L 335.016747 65.058382 
L 335.085398 65.155713 
L 335.119723 65.155713 
L 335.205536 65.234943 
L 335.205536 65.26223 
L 335.308512 65.361906 
L 335.445813 65.461414 
L 335.462976 65.479183 
L 335.548789 65.479183 
L 335.68609 65.537703 
L 335.68609 65.578458 
L 335.789066 65.716898 
L 336.01218 65.823871 
L 336.08083 65.963118 
L 336.115156 65.963118 
L 336.33827 66.041218 
L 336.33827 66.068214 
L 336.441246 66.138141 
L 336.715848 66.213144 
L 336.715848 66.240064 
L 336.801661 66.320388 
L 336.818824 66.320388 
L 337.024775 66.430183 
L 337.127751 66.499552 
L 337.299377 66.555419 
L 337.299377 66.608989 
L 337.402353 66.6795 
L 337.505329 66.739349 
L 337.505329 66.779439 
L 337.608304 66.870784 
L 337.814256 66.980909 
L 337.882907 67.12933 
L 337.917232 67.12933 
L 337.985882 67.206263 
L 337.985882 67.232842 
L 338.088858 67.368904 
L 338.226159 67.4782 
L 338.311972 67.546163 
L 338.329135 67.546163 
L 338.483599 67.589015 
L 338.483599 67.655122 
L 338.586574 67.790286 
L 338.861176 67.874032 
L 338.861176 67.900381 
L 338.94699 67.954587 
L 338.964152 67.954587 
L 339.170104 68.045238 
L 339.170104 68.05838 
L 339.27308 68.126968 
L 339.410381 68.221686 
L 339.410381 68.234798 
L 339.496194 68.326404 
L 339.513356 68.326404 
L 339.753633 68.427969 
L 339.839446 68.548278 
L 339.856609 68.548278 
L 340.045398 68.624804 
L 340.045398 68.650878 
L 340.131211 68.705642 
L 340.148374 68.705642 
L 340.182699 68.75624 
L 340.182699 68.808301 
L 340.285675 69.132595 
L 340.440138 69.201342 
L 340.440138 69.240209 
L 340.525952 69.372004 
L 340.543114 69.372004 
L 340.628927 69.46935 
L 340.628927 69.48227 
L 340.697578 69.574904 
L 340.731903 69.574904 
L 340.852042 69.681804 
L 340.937855 69.748381 
L 340.955017 69.748381 
L 341.109481 69.851907 
L 341.160969 69.879719 
L 341.212457 69.879719 
L 341.315433 69.97476 
L 341.315433 69.987593 
L 341.384083 70.1916 
L 341.418408 70.1916 
L 341.675848 70.300919 
L 341.761661 70.468814 
L 341.778824 70.468814 
L 341.933287 70.558328 
L 341.933287 70.57107 
L 342.036263 70.709738 
L 342.139239 70.794023 
L 342.139239 70.819438 
L 342.242215 70.884604 
L 342.362353 70.989299 
L 342.431003 71.05425 
L 342.465329 71.05425 
L 342.705606 71.160182 
L 342.774256 71.186987 
L 342.808581 71.186987 
L 342.945882 71.264263 
L 342.945882 71.289506 
L 343.031696 71.426458 
L 343.048858 71.426458 
L 343.186159 71.494019 
L 343.186159 71.531775 
L 343.289135 71.581838 
L 343.392111 71.663379 
L 343.392111 71.688497 
L 343.392111 71.772792 
L 343.495087 71.772792 
L 343.632388 71.854087 
L 343.632388 71.879143 
L 343.735363 72.055527 
L 343.924152 72.164205 
L 343.97564 72.252612 
L 344.027128 72.252612 
L 344.078616 72.36151 
L 344.164429 72.47452 
L 344.181592 72.47452 
L 344.267405 72.579837 
L 344.336055 72.802435 
L 344.370381 72.802435 
L 344.524844 72.88995 
L 344.524844 72.90233 
L 344.62782 73.086908 
L 344.679308 73.146994 
L 344.679308 73.196373 
L 344.782284 73.329296 
L 344.936747 73.430055 
L 345.039723 73.56247 
L 345.177024 73.639998 
L 345.177024 73.664544 
L 345.262837 73.738568 
L 345.28 73.738568 
L 345.468789 73.844129 
L 345.571765 73.96509 
L 345.67474 74.043797 
L 345.67474 74.068216 
L 345.777716 74.239211 
L 345.829204 74.345394 
L 345.93218 74.540074 
L 346.069481 74.62512 
L 346.069481 74.649384 
L 346.172457 74.770614 
L 346.206782 74.817322 
L 346.206782 74.877843 
L 346.309758 74.960687 
L 346.395571 74.991717 
L 346.395571 75.064184 
L 346.464221 75.124376 
L 346.498547 75.124376 
L 346.704498 75.213639 
L 346.704498 75.225684 
L 346.807474 75.297694 
L 347.030588 75.372846 
L 347.030588 75.396874 
L 347.133564 75.501105 
L 347.30519 75.596676 
L 347.30519 75.608656 
L 347.391003 75.727982 
L 347.408166 75.727982 
L 347.493979 75.828507 
L 347.596955 75.909862 
L 347.682768 75.99997 
L 347.682768 76.011894 
L 347.751419 76.201894 
L 347.785744 76.201894 
L 347.837232 76.257793 
L 347.837232 76.305347 
L 347.940208 76.504708 
L 348.026021 76.605991 
L 348.128997 76.770902 
L 348.197647 76.860031 
L 348.197647 76.871845 
L 348.300623 77.034351 
L 348.506574 77.133972 
L 348.558062 77.168294 
L 348.60955 77.168294 
L 348.781176 77.257697 
L 348.781176 77.269447 
L 348.884152 77.409257 
L 348.969965 77.460557 
L 348.969965 77.519152 
L 349.072941 77.703402 
L 349.19308 77.811022 
L 349.227405 77.831269 
L 349.296055 77.831269 
L 349.347543 77.899416 
L 349.347543 77.934397 
L 349.433356 78.175708 
L 349.450519 78.175708 
L 349.51917 78.276588 
L 349.570657 78.309985 
L 349.622145 78.309985 
L 349.776609 78.399466 
L 349.776609 78.411059 
L 349.879585 78.606408 
L 349.931073 78.648918 
L 349.931073 78.706718 
L 350.016886 78.855199 
L 350.034048 78.855199 
L 350.085536 78.955209 
L 350.188512 79.091681 
L 350.291488 79.197203 
L 350.394464 79.333191 
L 350.428789 79.411582 
L 350.428789 79.434513 
L 350.531765 79.604391 
L 350.651903 79.695821 
L 350.651903 79.70725 
L 350.737716 79.750941 
L 350.754879 79.750941 
L 350.943668 79.777414 
L 350.943668 79.857254 
L 351.046644 79.912175 
L 351.201107 80.010615 
L 351.201107 80.021991 
L 351.304083 80.099446 
L 351.458547 80.197551 
L 351.458547 80.208898 
L 351.561522 80.297416 
L 351.647336 80.380288 
L 351.647336 80.40293 
L 351.733149 80.502467 
L 351.750311 80.502467 
L 351.887612 80.613125 
L 351.973426 80.858796 
L 351.990588 80.858796 
L 352.076401 80.963507 
L 352.179377 81.239803 
L 352.351003 81.313702 
L 352.351003 81.347304 
L 352.436817 81.434212 
L 352.453979 81.434212 
L 352.539792 81.52692 
L 352.539792 81.538094 
L 352.642768 81.624722 
L 352.694256 81.721144 
L 352.694256 81.732293 
L 352.797232 81.805523 
L 352.84872 81.903707 
L 352.84872 81.914832 
L 352.934533 82.023149 
L 352.951696 82.023149 
L 353.071834 82.099986 
L 353.071834 82.133275 
L 353.140484 82.217047 
L 353.17481 82.217047 
L 353.24346 82.323788 
L 353.329273 82.475611 
L 353.346436 82.475611 
L 353.432249 82.555912 
L 353.432249 82.577989 
L 353.535225 82.696211 
L 353.689689 82.801184 
L 353.775502 82.875012 
L 353.792664 82.875012 
L 353.912803 82.972723 
L 353.912803 82.983703 
L 354.015779 83.075151 
L 354.15308 83.18552 
L 354.256055 83.400949 
L 354.359031 83.489002 
L 354.359031 83.510828 
L 354.462007 83.721243 
L 354.530657 83.773601 
L 354.530657 83.827988 
L 354.616471 83.965682 
L 354.633633 83.965682 
L 354.753772 84.050953 
L 354.753772 84.07264 
L 354.839585 84.166524 
L 354.856747 84.166524 
L 354.942561 84.255653 
L 354.942561 84.277287 
L 355.045536 84.381659 
L 355.131349 84.492089 
L 355.2 84.596107 
L 355.234325 84.596107 
L 355.302976 84.686769 
L 355.302976 84.697532 
L 355.405952 84.94949 
L 355.457439 84.990316 
L 355.457439 85.054668 
L 355.560415 85.382464 
L 355.697716 85.47447 
L 355.697716 85.485142 
L 355.783529 85.608957 
L 355.800692 85.608957 
L 355.92083 85.692089 
L 355.92083 85.713375 
L 356.023806 86.068147 
L 356.143945 86.163439 
L 356.143945 86.17403 
L 356.24692 86.389601 
L 356.315571 86.4909 
L 356.418547 86.684526 
L 356.538685 86.726383 
L 356.538685 86.789506 
L 356.607336 86.900505 
L 356.641661 86.900505 
L 356.744637 87.005145 
L 356.847612 87.161617 
L 357.019239 87.263672 
L 357.122215 87.436456 
L 357.173702 87.546816 
L 357.259516 87.698146 
L 357.276678 87.698146 
L 357.345329 87.75399 
L 357.345329 87.805966 
L 357.448304 87.936 
L 357.516955 88.043484 
L 357.619931 88.276501 
L 357.688581 88.342219 
L 357.688581 88.383533 
L 357.791557 88.631722 
L 357.87737 88.730209 
L 357.87737 88.740496 
L 357.980346 88.940695 
L 358.083322 89.032124 
L 358.083322 89.042375 
L 358.186298 89.372409 
L 358.272111 89.467778 
L 358.272111 89.477982 
L 358.375087 89.960981 
L 358.52955 90.02407 
L 358.52955 90.064639 
L 358.632526 90.087066 
L 358.701176 90.153443 
L 358.701176 90.19394 
L 358.804152 90.289327 
L 358.941453 90.374456 
L 358.941453 90.39465 
L 359.044429 90.590486 
L 359.11308 90.684324 
L 359.11308 90.694387 
L 359.216055 90.849286 
L 359.387682 90.94912 
L 359.387682 90.959149 
L 359.490657 91.063362 
L 359.542145 91.128851 
L 359.542145 91.168874 
L 359.645121 91.35034 
L 359.679446 91.35034 
L 359.679446 91.460093 
L 359.782422 91.593399 
L 359.902561 91.669091 
L 359.902561 91.698924 
L 360.005536 91.950801 
L 360.108512 92.038294 
L 360.108512 92.058102 
L 360.194325 92.269317 
L 360.211488 92.269317 
L 360.280138 92.301833 
L 360.280138 92.370939 
L 360.383114 92.571451 
L 360.417439 92.578957 
L 360.417439 92.677367 
L 360.520415 92.994804 
L 360.589066 93.095517 
L 360.589066 93.105309 
L 360.692042 93.45041 
L 360.795017 93.555564 
L 360.897993 93.840539 
L 361.018131 93.88452 
L 361.018131 93.942746 
L 361.121107 94.177959 
L 361.224083 94.282048 
L 361.327059 94.496941 
L 361.447197 94.569267 
L 361.447197 94.607785 
L 361.550173 94.96571 
L 361.618824 95.054335 
L 361.618824 95.073497 
L 361.721799 95.305326 
L 361.807612 95.333845 
L 361.807612 95.410225 
L 361.910588 95.574386 
L 362.065052 95.66916 
L 362.065052 95.678673 
L 362.168028 95.747198 
L 362.305329 95.815625 
L 362.305329 95.853586 
L 362.408304 96.045029 
L 362.528443 96.153363 
L 362.631419 96.398144 
L 362.700069 96.496899 
L 362.700069 96.506317 
L 362.76872 96.573843 
L 362.803045 96.573843 
L 362.871696 96.660505 
L 362.871696 96.679302 
L 362.957509 96.884866 
L 362.974671 96.884866 
L 363.111972 96.991855 
L 363.214948 97.046967 
L 363.283599 97.144856 
L 363.283599 97.154199 
L 363.386574 97.286239 
L 363.472388 97.369556 
L 363.472388 97.38819 
L 363.575363 97.687042 
L 363.626851 97.774879 
L 363.626851 97.793432 
L 363.729827 98.051339 
L 363.798478 98.074085 
L 363.798478 98.15726 
L 363.884291 98.315099 
L 363.901453 98.315099 
L 363.935779 98.423179 
L 364.038754 98.653961 
L 364.210381 98.741491 
L 364.210381 98.759838 
L 364.313356 98.971242 
L 364.416332 99.068364 
L 364.416332 99.077504 
L 364.519308 99.333573 
L 364.553633 99.367484 
L 364.553633 99.440332 
L 364.656609 99.577189 
L 364.72526 99.68763 
L 364.828235 100.032176 
L 364.862561 100.065787 
L 364.862561 100.138074 
L 364.965536 100.334151 
L 365.051349 100.425545 
L 365.051349 100.443548 
L 365.154325 100.683681 
L 365.240138 100.765686 
L 365.240138 100.792584 
L 365.343114 101.105683 
L 365.394602 101.136251 
L 365.394602 101.216595 
L 365.497578 101.296608 
L 365.652042 101.356104 
L 365.652042 101.400615 
L 365.755017 101.80875 
L 365.806505 101.838992 
L 365.806505 101.918683 
L 365.909481 102.289111 
L 365.960969 102.380811 
L 365.960969 102.398423 
L 366.063945 102.863186 
L 366.09827 102.904359 
L 366.09827 102.965649 
L 366.201246 103.331568 
L 366.269896 103.428204 
L 366.269896 103.436912 
L 366.372872 103.809438 
L 366.407197 103.910802 
L 366.407197 103.919465 
L 366.510173 104.1431 
L 366.595986 104.218813 
L 366.595986 104.253335 
L 366.681799 104.450148 
L 366.698962 104.450148 
L 366.75045 104.513657 
L 366.75045 104.556662 
L 366.853426 104.71835 
L 366.922076 104.761799 
L 366.922076 104.821821 
L 367.025052 105.162393 
L 367.128028 105.217247 
L 367.128028 105.268431 
L 367.231003 105.573115 
L 367.368304 105.68163 
L 367.47128 105.93967 
L 367.557093 106.041489 
L 367.557093 106.04994 
L 367.660069 106.317862 
L 367.711557 106.421898 
L 367.814533 106.705335 
L 367.866021 106.725049 
L 367.866021 106.808876 
L 367.968997 107.141038 
L 368.071972 107.23582 
L 368.071972 107.244157 
L 368.157785 107.341636 
L 368.174948 107.341636 
L 368.243599 107.449908 
L 368.329412 107.746161 
L 368.346574 107.746161 
L 368.432388 107.801442 
L 368.432388 107.851118 
L 368.535363 108.253042 
L 368.569689 108.299713 
L 368.569689 108.357352 
L 368.672664 108.765068 
L 368.758478 108.786746 
L 368.758478 108.868626 
L 368.861453 109.433852 
L 368.930104 109.525834 
L 368.930104 109.542085 
L 369.03308 109.668653 
L 369.084567 109.77655 
L 369.187543 110.015835 
L 369.273356 110.117653 
L 369.273356 110.125721 
L 369.376332 110.396061 
L 369.444983 110.476053 
L 369.444983 110.500156 
L 369.547958 111.065034 
L 369.599446 111.155137 
L 369.599446 111.171087 
L 369.702422 111.517362 
L 369.771073 111.627919 
L 369.874048 111.739947 
L 369.925536 111.832103 
L 369.925536 111.847927 
L 370.028512 112.080814 
L 370.08 112.153975 
L 370.08 112.185501 
L 370.182976 112.558692 
L 370.217301 112.595059 
L 370.217301 112.665628 
L 370.320277 112.984061 
L 370.320277 112.984061 
L 370.388927 113.067047 
L 370.388927 113.090449 
L 370.47474 113.335132 
L 370.491903 113.335132 
L 370.543391 113.430423 
L 370.543391 113.445959 
L 370.629204 113.821067 
L 370.646367 113.821067 
L 370.715017 113.905166 
L 370.715017 113.928343 
L 370.80083 114.185756 
L 370.817993 114.185756 
L 370.869481 114.187666 
L 370.869481 114.295407 
L 370.972457 114.666535 
L 371.023945 114.752584 
L 371.023945 114.775536 
L 371.12692 115.053006 
L 371.229896 115.152727 
L 371.229896 115.160342 
L 371.332872 115.557732 
L 371.350035 115.557732 
L 371.350035 115.66379 
L 371.45301 115.839929 
L 371.504498 115.947317 
L 371.607474 116.340824 
L 371.693287 116.434157 
L 371.693287 116.44916 
L 371.796263 116.660789 
L 371.847751 116.767054 
L 371.950727 117.186222 
L 372.002215 117.276937 
L 372.002215 117.291794 
L 372.10519 117.508445 
L 372.139516 117.616539 
L 372.242491 117.80271 
L 372.328304 117.901493 
L 372.328304 117.908866 
L 372.43128 118.086886 
L 372.448443 118.086886 
L 372.448443 118.197157 
L 372.551419 118.46971 
L 372.585744 118.474051 
L 372.585744 118.57651 
L 372.68872 118.818543 
L 372.723045 118.852012 
L 372.723045 118.924885 
L 372.826021 119.216617 
L 372.877509 119.297691 
L 372.877509 119.326695 
L 372.980484 119.530156 
L 373.01481 119.548845 
L 373.01481 119.635561 
L 373.117785 120.061228 
L 373.169273 120.155771 
L 373.169273 120.170129 
L 373.272249 120.392745 
L 373.3409 120.476702 
L 373.3409 120.498152 
L 373.443875 120.655555 
L 373.581176 120.762721 
L 373.684152 121.011833 
L 373.73564 121.098056 
L 373.73564 121.119338 
L 373.838616 121.607369 
L 373.872941 121.674836 
L 373.872941 121.717113 
L 373.975917 121.85066 
L 374.027405 121.928915 
L 374.027405 121.957011 
L 374.130381 122.356069 
L 374.147543 122.356069 
L 374.147543 122.460863 
L 374.250519 122.850469 
L 374.267682 122.850469 
L 374.267682 122.954666 
L 374.370657 123.500677 
L 374.473633 123.595614 
L 374.473633 123.609393 
L 374.576609 123.759905 
L 374.628097 123.843079 
L 374.628097 123.870547 
L 374.71391 124.369259 
L 374.731073 124.369259 
L 374.834048 124.456144 
L 374.834048 124.476595 
L 374.919862 124.71359 
L 374.937024 124.71359 
L 375.057163 124.824053 
L 375.160138 125.080147 
L 375.194464 125.117624 
L 375.194464 125.185209 
L 375.297439 125.493908 
L 375.36609 125.572043 
L 375.36609 125.598934 
L 375.469066 125.999618 
L 375.520554 126.086994 
L 375.520554 126.107039 
L 375.623529 126.694605 
L 375.675017 126.784319 
L 375.675017 126.804201 
L 375.777993 127.132792 
L 375.846644 127.242109 
L 375.949619 127.575336 
L 376.001107 127.641231 
L 376.001107 127.680574 
L 376.104083 128.305192 
L 376.189896 128.41614 
L 376.292872 128.905913 
L 376.34436 128.989989 
L 376.34436 129.0158 
L 376.447336 129.277059 
L 376.533149 129.360794 
L 376.533149 129.386483 
L 376.636125 129.799838 
L 376.653287 129.799838 
L 376.653287 129.908387 
L 376.756263 130.52193 
L 376.859239 130.6326 
L 376.962215 130.799829 
L 376.99654 130.884948 
L 376.99654 130.910163 
L 377.099516 131.634605 
L 377.133841 131.656395 
L 377.133841 131.743809 
L 377.236817 132.144688 
L 377.253979 132.144688 
L 377.253979 132.250195 
L 377.356955 132.703964 
L 377.408443 132.808482 
L 377.408443 132.814642 
L 377.511419 133.289241 
L 377.511419 133.289241 
L 377.597232 133.399052 
L 377.700208 133.973611 
L 377.734533 134.043213 
L 377.734533 134.079609 
L 377.837509 134.582923 
L 377.888997 134.588489 
L 377.888997 134.690874 
L 377.991972 134.926569 
L 378.026298 135.019274 
L 378.026298 135.037253 
L 378.129273 135.575908 
L 378.180761 135.682421 
L 378.283737 136.364083 
L 378.386713 136.418461 
L 378.386713 136.471457 
L 378.489689 136.777568 
L 378.541176 136.847213 
L 378.541176 136.888209 
L 378.644152 137.329108 
L 378.644152 137.329108 
L 378.678478 137.329108 
L 378.678478 137.439663 
L 378.781453 137.915275 
L 378.832941 138.001136 
L 378.832941 138.024228 
L 378.935917 138.771116 
L 378.970242 138.836423 
L 378.970242 138.882128 
L 379.073218 139.087178 
L 379.090381 139.087178 
L 379.090381 139.195324 
L 379.193356 139.880191 
L 379.210519 139.880191 
L 379.210519 139.987281 
L 379.313495 140.278921 
L 379.34782 140.292438 
L 379.34782 140.387751 
L 379.450796 140.813841 
L 379.450796 140.813841 
L 379.519446 140.901879 
L 379.519446 140.924141 
L 379.622422 141.565927 
L 379.725398 141.67614 
L 379.828374 142.081552 
L 379.879862 142.178977 
L 379.879862 142.189927 
L 379.982837 142.918544 
L 380.034325 142.971503 
L 380.034325 143.025686 
L 380.137301 143.47214 
L 380.171626 143.484947 
L 380.171626 143.581802 
L 380.274602 144.062272 
L 380.291765 144.062272 
L 380.291765 144.169086 
L 380.39474 144.741152 
L 380.429066 144.758981 
L 380.429066 144.848972 
L 380.532042 145.094806 
L 380.566367 145.096716 
L 380.566367 145.202093 
L 380.669343 145.860136 
L 380.72083 145.884716 
L 380.72083 145.968173 
L 380.823806 146.629782 
L 380.858131 146.709064 
L 380.858131 146.740039 
L 380.961107 147.076868 
L 381.012595 147.116335 
L 381.012595 147.183062 
L 381.115571 147.777772 
L 381.201384 147.871059 
L 381.201384 147.886309 
L 381.30436 148.313667 
L 381.338685 148.386047 
L 381.338685 148.421382 
L 381.441661 149.076 
L 381.458824 149.076 
L 381.458824 149.185999 
L 381.561799 149.794195 
L 381.578962 149.794195 
L 381.578962 149.903159 
L 381.681938 150.244728 
L 381.6991 150.244728 
L 381.6991 150.353031 
L 381.802076 150.931923 
L 381.819239 150.931923 
L 381.819239 151.039243 
L 381.922215 151.607802 
L 381.973702 151.692831 
L 381.973702 151.716986 
L 382.076678 152.184192 
L 382.111003 152.199969 
L 382.111003 152.291086 
L 382.213979 152.754456 
L 382.299792 152.82644 
L 382.299792 152.864488 
L 382.402768 153.210492 
L 382.437093 153.282737 
L 382.437093 153.320544 
L 382.540069 153.584226 
L 382.625882 153.626981 
L 382.625882 153.692799 
L 382.728858 154.123272 
L 382.746021 154.123272 
L 382.746021 154.230636 
L 382.848997 154.551028 
L 382.883322 154.649686 
L 382.883322 154.65896 
L 382.986298 155.235322 
L 383.037785 155.269842 
L 383.037785 155.343368 
L 383.140761 156.617151 
L 383.157924 156.617151 
L 383.157924 156.725432 
L 383.2609 157.539688 
L 383.312388 157.608543 
L 383.312388 157.648616 
L 383.415363 158.289191 
L 383.449689 158.365109 
L 383.449689 158.395952 
L 383.552664 159.164865 
L 383.58699 159.252878 
L 383.58699 159.274639 
L 383.672803 159.636722 
L 383.689965 159.636722 
L 383.775779 159.713742 
L 383.775779 159.744 
L 383.878754 160.583351 
L 383.930242 160.691659 
L 384.033218 161.457085 
L 384.033218 161.457085 
L 384.067543 161.457085 
L 384.067543 161.566679 
L 384.170519 162.45488 
L 384.204844 162.542861 
L 384.204844 162.563629 
L 384.30782 163.631564 
L 384.342145 163.726197 
L 384.342145 163.742535 
L 384.445121 164.675613 
L 384.530934 164.774458 
L 384.530934 164.786527 
L 384.63391 165.055253 
L 384.685398 165.136383 
L 384.685398 165.164385 
L 384.788374 165.685883 
L 384.822699 165.765703 
L 384.822699 165.793446 
L 384.925675 166.132738 
L 384.96 166.184432 
L 384.96 166.243493 
L 385.062976 166.682064 
L 385.080138 166.682064 
L 385.080138 166.791457 
L 385.183114 167.117603 
L 385.217439 167.145196 
L 385.217439 167.226684 
L 385.320415 168.092516 
L 385.337578 168.092516 
L 385.337578 168.20347 
L 385.440554 168.879019 
L 385.492042 168.962837 
L 385.492042 168.98929 
L 385.595017 169.33423 
L 385.663668 169.436452 
L 385.663668 169.443955 
L 385.766644 169.980061 
L 385.818131 170.017749 
L 385.818131 170.088366 
L 385.921107 170.847089 
L 385.972595 170.873185 
L 385.972595 170.95756 
L 386.075571 171.451869 
L 386.109896 171.466585 
L 386.109896 171.561093 
L 386.212872 171.974883 
L 386.247197 172.014704 
L 386.247197 172.083197 
L 386.350173 172.946594 
L 386.401661 173.046245 
L 386.401661 173.056895 
L 386.504637 173.823077 
L 386.573287 173.917827 
L 386.573287 173.931837 
L 386.676263 174.638932 
L 386.676263 174.638932 
L 386.693426 174.638932 
L 386.693426 174.749679 
L 386.796401 175.090933 
L 386.796401 175.090933 
L 386.882215 175.176717 
L 386.882215 175.200749 
L 386.98519 175.754054 
L 386.98519 175.754054 
L 387.071003 175.855781 
L 387.071003 175.862574 
L 387.173979 176.665213 
L 387.173979 176.665213 
L 387.191142 176.665213 
L 387.191142 176.775798 
L 387.276955 177.450931 
L 387.294118 177.450931 
L 387.345606 177.513535 
L 387.345606 177.559844 
L 387.448581 178.019894 
L 387.448581 178.019894 
L 387.534394 178.13066 
L 387.63737 178.641268 
L 387.63737 178.641268 
L 387.688858 178.663796 
L 387.688858 178.751415 
L 387.791834 179.55212 
L 387.791834 179.55212 
L 387.826159 179.641446 
L 387.826159 179.660625 
L 387.929135 180.002955 
L 387.929135 180.002955 
L 387.96346 180.11063 
L 387.96346 180.113802 
L 388.066436 180.629793 
L 388.066436 180.629793 
L 388.083599 180.629793 
L 388.083599 180.739783 
L 388.186574 181.663062 
L 388.186574 181.663062 
L 388.2209 181.699817 
L 388.2209 181.773963 
L 388.323875 182.248084 
L 388.323875 182.248084 
L 388.341038 182.248084 
L 388.341038 182.358264 
L 388.444014 182.544828 
L 388.444014 182.544828 
L 388.461176 182.544828 
L 388.461176 182.654448 
L 388.564152 183.039761 
L 388.564152 183.039761 
L 388.61564 183.075191 
L 388.61564 183.150656 
L 388.718616 183.562528 
L 388.718616 183.562528 
L 388.752941 183.589046 
L 388.752941 183.672831 
L 388.855917 184.315051 
L 388.855917 184.315051 
L 388.87308 184.315051 
L 388.87308 184.424411 
L 388.976055 185.151809 
L 388.976055 185.151809 
L 389.010381 185.165887 
L 389.010381 185.262052 
L 389.113356 186.257429 
L 389.113356 186.257429 
L 389.130519 186.257429 
L 389.130519 186.366147 
L 389.233495 186.77234 
L 389.233495 186.77234 
L 389.319308 186.849446 
L 389.319308 186.883445 
L 389.422284 187.358855 
L 389.422284 187.358855 
L 389.490934 187.460894 
L 389.490934 187.469306 
L 389.59391 188.639068 
L 389.59391 188.639068 
L 389.628235 188.707081 
L 389.628235 188.748241 
L 389.731211 189.213458 
L 389.731211 189.213458 
L 389.782699 189.261056 
L 389.782699 189.323541 
L 389.885675 190.756107 
L 389.885675 190.756107 
L 389.92 190.863875 
L 389.92 190.866518 
L 390.022976 191.502715 
L 390.022976 191.502715 
L 390.057301 191.554208 
L 390.057301 191.611637 
L 390.160277 192.117848 
L 390.160277 192.117848 
L 390.211765 192.204105 
L 390.211765 192.227332 
L 390.31474 192.812063 
L 390.31474 192.812063 
L 390.349066 192.910737 
L 390.349066 192.920931 
L 390.452042 193.792474 
L 390.452042 193.792474 
L 390.469204 193.792474 
L 390.469204 193.902754 
L 390.57218 194.679888 
L 390.57218 194.679888 
L 390.589343 194.679888 
L 390.589343 194.790881 
L 390.692318 195.484861 
L 390.692318 195.484861 
L 390.760969 195.572071 
L 390.760969 195.593926 
L 390.846782 195.998655 
L 390.863945 195.998655 
L 390.881107 195.998655 
L 390.881107 196.109381 
L 390.984083 196.526775 
L 390.984083 196.526775 
L 391.001246 196.526775 
L 391.001246 196.636416 
L 391.104221 197.257063 
L 391.104221 197.257063 
L 391.155709 197.288064 
L 391.155709 197.36798 
L 391.258685 197.861405 
L 391.258685 197.861405 
L 391.29301 197.967347 
L 391.29301 197.971992 
L 391.395986 198.592899 
L 391.395986 198.592899 
L 391.447474 198.689465 
L 391.447474 198.703208 
L 391.55045 199.27911 
L 391.55045 199.27911 
L 391.584775 199.364082 
L 391.584775 199.388953 
L 391.687751 199.82508 
L 391.687751 199.82508 
L 391.790727 199.929525 
L 391.790727 199.933998 
L 391.893702 200.604274 
L 391.893702 200.604274 
L 391.928028 200.680415 
L 391.928028 200.713473 
L 392.031003 201.477877 
L 392.031003 201.477877 
L 392.065329 201.520176 
L 392.065329 201.587379 
L 392.168304 202.146254 
L 392.168304 202.146254 
L 392.20263 202.151559 
L 392.20263 202.256441 
L 392.305606 202.621367 
L 392.305606 202.621367 
L 392.322768 202.621367 
L 392.322768 202.731636 
L 392.425744 202.941349 
L 392.425744 202.941349 
L 392.460069 202.967614 
L 392.460069 203.051863 
L 392.563045 203.889097 
L 392.563045 203.889097 
L 392.580208 203.889097 
L 392.580208 203.998702 
L 392.683183 204.946132 
L 392.683183 204.946132 
L 392.717509 204.999642 
L 392.717509 205.056318 
L 392.820484 205.573094 
L 392.820484 205.573094 
L 392.837647 205.573094 
L 392.837647 205.683085 
L 392.940623 206.626258 
L 392.940623 206.626258 
L 392.992111 206.707978 
L 392.992111 206.737321 
L 393.095087 207.071538 
L 393.095087 207.071538 
L 393.129412 207.085814 
L 393.129412 207.18085 
L 393.232388 207.763289 
L 393.232388 207.763289 
L 393.266713 207.853828 
L 393.266713 207.872934 
L 393.369689 209.77113 
L 393.369689 209.77113 
L 393.421176 209.801545 
L 393.421176 209.88044 
L 393.524152 210.261847 
L 393.524152 210.261847 
L 393.558478 210.353157 
L 393.558478 210.371302 
L 393.661453 210.962232 
L 393.661453 210.962232 
L 393.695779 210.989537 
L 393.695779 211.071827 
L 393.798754 211.947712 
L 393.798754 211.947712 
L 393.850242 212.050114 
L 393.850242 212.057115 
L 393.953218 213.015831 
L 393.953218 213.015831 
L 394.039031 213.121565 
L 394.039031 213.126696 
L 394.142007 214.200508 
L 394.142007 214.200508 
L 394.176332 214.214125 
L 394.176332 214.310914 
L 394.279308 214.808232 
L 394.279308 214.808232 
L 394.296471 214.808232 
L 394.296471 214.918566 
L 394.399446 215.193808 
L 394.399446 215.193808 
L 394.450934 215.27421 
L 394.450934 215.303567 
L 394.55391 215.931343 
L 394.55391 215.931343 
L 394.605398 216.01838 
L 394.605398 216.042442 
L 394.708374 216.412304 
L 394.708374 216.412304 
L 394.759862 216.453884 
L 394.759862 216.522141 
L 394.845675 216.908253 
L 394.862837 216.908253 
L 394.897163 216.9115 
L 394.897163 217.018271 
L 395.000138 217.992899 
L 395.000138 217.992899 
L 395.051626 217.994524 
L 395.051626 218.103305 
L 395.154602 218.717348 
L 395.154602 218.717348 
L 395.188927 218.720374 
L 395.188927 218.827357 
L 395.291903 219.451783 
L 395.291903 219.451783 
L 395.326228 219.451783 
L 395.326228 219.562889 
L 395.429204 220.352688 
L 395.429204 220.352688 
L 395.53218 220.429222 
L 395.53218 220.462551 
L 395.635156 220.844056 
L 395.635156 220.844056 
L 395.652318 220.844056 
L 395.652318 220.954442 
L 395.755294 221.273143 
L 395.755294 221.273143 
L 395.841107 221.301071 
L 395.841107 221.383325 
L 395.944083 222.093222 
L 395.944083 222.093222 
L 395.978408 222.154314 
L 395.978408 222.202972 
L 396.081384 222.840128 
L 396.081384 222.840128 
L 396.115709 222.861822 
L 396.115709 222.950618 
L 396.218685 223.419991 
L 396.218685 223.419991 
L 396.235848 223.419991 
L 396.235848 223.530471 
L 396.338824 223.926518 
L 396.338824 223.926518 
L 396.373149 223.93427 
L 396.373149 224.036717 
L 396.476125 225.028657 
L 396.476125 225.028657 
L 396.527612 225.078626 
L 396.527612 225.139461 
L 396.630588 225.555499 
L 396.630588 225.555499 
L 396.647751 225.555499 
L 396.647751 225.665426 
L 396.750727 226.185617 
L 396.750727 226.185617 
L 396.83654 226.235875 
L 396.83654 226.296218 
L 396.939516 226.648917 
L 396.939516 226.648917 
L 396.956678 226.648917 
L 396.956678 226.759562 
L 397.059654 227.502219 
L 397.059654 227.502219 
L 397.093979 227.535924 
L 397.093979 227.612539 
L 397.196955 228.041029 
L 397.196955 228.041029 
L 397.23128 228.134219 
L 397.23128 228.150997 
L 397.334256 228.73895 
L 397.334256 228.73895 
L 397.351419 228.73895 
L 397.351419 228.849721 
L 397.454394 229.547336 
L 397.454394 229.547336 
L 397.471557 229.547336 
L 397.471557 229.658114 
L 397.574533 230.207239 
L 397.574533 230.207239 
L 397.626021 230.310579 
L 397.626021 230.317374 
L 397.728997 230.85904 
L 397.728997 230.85904 
L 397.763322 230.920969 
L 397.763322 230.969967 
L 397.866298 231.884168 
L 397.866298 231.884168 
L 397.88346 231.884168 
L 397.88346 231.994787 
L 397.986436 232.424649 
L 397.986436 232.424649 
L 398.020761 232.478613 
L 398.020761 232.53521 
L 398.123737 233.144821 
L 398.123737 233.144821 
L 398.1409 233.144821 
L 398.1409 233.255894 
L 398.243875 233.639785 
L 398.243875 233.639785 
L 398.278201 233.660897 
L 398.278201 233.75079 
L 398.381176 234.41407 
L 398.381176 234.41407 
L 398.415502 234.473152 
L 398.415502 234.524702 
L 398.518478 235.58298 
L 398.518478 235.58298 
L 398.53564 235.58298 
L 398.53564 235.693626 
L 398.638616 236.306114 
L 398.638616 236.306114 
L 398.672941 236.364923 
L 398.672941 236.416677 
L 398.775917 236.971259 
L 398.775917 236.971259 
L 398.827405 237.073328 
L 398.827405 237.081784 
L 398.930381 237.711507 
L 398.930381 237.711507 
L 398.964706 237.755009 
L 398.964706 237.822195 
L 399.067682 239.000778 
L 399.067682 239.000778 
L 399.11917 239.105645 
L 399.11917 239.111844 
L 399.222145 239.597637 
L 399.222145 239.597637 
L 399.307958 239.708548 
L 399.410934 240.337686 
L 399.410934 240.337686 
L 399.44526 240.405906 
L 399.44526 240.44845 
L 399.548235 240.713678 
L 399.548235 240.713678 
L 399.582561 240.814738 
L 399.582561 240.823985 
L 399.685536 241.54961 
L 399.685536 241.54961 
L 399.719862 241.579165 
L 399.719862 241.660372 
L 399.822837 242.234944 
L 399.822837 242.234944 
L 399.857163 242.235691 
L 399.857163 242.345749 
L 399.960138 242.881229 
L 399.960138 242.881229 
L 399.977301 242.881229 
L 399.977301 242.992231 
L 400.080277 243.451024 
L 400.080277 243.451024 
L 400.131765 243.511142 
L 400.131765 243.562118 
L 400.23474 244.291932 
L 400.23474 244.291932 
L 400.286228 244.380461 
L 400.286228 244.403007 
L 400.389204 245.058902 
L 400.389204 245.058902 
L 400.457855 245.136192 
L 400.457855 245.169918 
L 400.56083 245.805902 
L 400.56083 245.805902 
L 400.612318 245.866397 
L 400.612318 245.91649 
L 400.715294 246.590085 
L 400.715294 246.590085 
L 400.766782 246.621723 
L 400.766782 246.700546 
L 400.852595 247.073198 
L 400.869758 247.073198 
L 400.904083 247.125844 
L 400.904083 247.184155 
L 401.007059 247.823483 
L 401.007059 247.823483 
L 401.058547 247.912605 
L 401.058547 247.933993 
L 401.161522 248.972724 
L 401.161522 248.972724 
L 401.230173 249.083012 
L 401.230173 249.083655 
L 401.333149 250.016985 
L 401.333149 250.016985 
L 401.367474 250.074361 
L 401.367474 250.127674 
L 401.47045 251.394081 
L 401.47045 251.394081 
L 401.487612 251.394081 
L 401.487612 251.505182 
L 401.590588 252.17556 
L 401.590588 252.17556 
L 401.607751 252.17556 
L 401.607751 252.286424 
L 401.710727 252.84369 
L 401.710727 252.84369 
L 401.727889 252.84369 
L 401.727889 252.954658 
L 401.830865 253.218897 
L 401.830865 253.218897 
L 401.848028 253.218897 
L 401.848028 253.329967 
L 401.951003 254.249961 
L 401.951003 254.249961 
L 401.968166 254.249961 
L 401.968166 254.361069 
L 402.071142 254.799716 
L 402.071142 254.799716 
L 402.105467 254.827845 
L 402.105467 254.91056 
L 402.208443 255.163056 
L 402.208443 255.163056 
L 402.294256 255.228628 
L 402.294256 255.273722 
L 402.397232 256.030525 
L 402.397232 256.030525 
L 402.431557 256.12967 
L 402.431557 256.141552 
L 402.534533 256.84852 
L 402.534533 256.84852 
L 402.586021 256.932838 
L 402.586021 256.959203 
L 402.688997 257.56175 
L 402.688997 257.56175 
L 402.706159 257.56175 
L 402.706159 257.672797 
L 402.809135 258.114083 
L 402.809135 258.114083 
L 402.84346 258.201987 
L 402.84346 258.224754 
L 402.946436 258.958579 
L 402.946436 258.958579 
L 402.980761 259.055751 
L 402.980761 259.069379 
L 403.083737 259.657319 
L 403.083737 259.657319 
L 403.1009 259.657319 
L 403.1009 259.768113 
L 403.203875 260.250024 
L 403.203875 260.250024 
L 403.272526 260.359349 
L 403.272526 260.361013 
L 403.375502 260.707638 
L 403.375502 260.707638 
L 403.42699 260.818286 
L 403.42699 260.818694 
L 403.529965 261.235371 
L 403.529965 261.235371 
L 403.547128 261.235371 
L 403.547128 261.346438 
L 403.650104 261.99955 
L 403.650104 261.99955 
L 403.667266 261.99955 
L 403.667266 262.110421 
L 403.770242 262.979171 
L 403.770242 262.979171 
L 403.804567 263.008074 
L 403.804567 263.090098 
L 403.907543 263.49021 
L 403.907543 263.49021 
L 403.924706 263.49021 
L 403.924706 263.601085 
L 404.027682 264.089564 
L 404.027682 264.089564 
L 404.096332 264.190614 
L 404.096332 264.200425 
L 404.199308 264.683541 
L 404.199308 264.683541 
L 404.233633 264.768909 
L 404.233633 264.794473 
L 404.336609 265.517771 
L 404.336609 265.517771 
L 404.370934 265.59683 
L 404.370934 265.62861 
L 404.47391 266.295795 
L 404.47391 266.295795 
L 404.542561 266.380758 
L 404.542561 266.40662 
L 404.645536 267.147294 
L 404.645536 267.147294 
L 404.731349 267.233289 
L 404.731349 267.258381 
L 404.834325 267.914339 
L 404.834325 267.914339 
L 404.868651 267.92874 
L 404.868651 268.025173 
L 404.971626 268.504737 
L 404.971626 268.504737 
L 405.005952 268.540198 
L 405.005952 268.615613 
L 405.108927 269.149607 
L 405.108927 269.149607 
L 405.12609 269.149607 
L 405.12609 269.260586 
L 405.229066 269.902581 
L 405.229066 269.902581 
L 405.246228 269.902581 
L 405.246228 270.013676 
L 405.349204 270.680761 
L 405.349204 270.680761 
L 405.383529 270.692574 
L 405.383529 270.791746 
L 405.486505 271.284523 
L 405.486505 271.284523 
L 405.555156 271.355213 
L 405.555156 271.395553 
L 405.658131 271.905722 
L 405.658131 271.905722 
L 405.709619 272.014835 
L 405.709619 272.01671 
L 405.812595 273.008508 
L 405.812595 273.008508 
L 405.829758 273.008508 
L 405.829758 273.119518 
L 405.932734 273.959058 
L 405.932734 273.959058 
L 405.949896 273.959058 
L 405.949896 274.070053 
L 406.052872 274.452987 
L 406.052872 274.452987 
L 406.070035 274.452987 
L 406.070035 274.563943 
L 406.17301 274.860729 
L 406.17301 274.860729 
L 406.241661 274.944424 
L 406.241661 274.971795 
L 406.344637 275.387487 
L 406.344637 275.387487 
L 406.361799 275.387487 
L 406.361799 275.498477 
L 406.464775 275.920281 
L 406.464775 275.920281 
L 406.4991 275.989737 
L 406.4991 276.031383 
L 406.602076 276.411598 
L 406.602076 276.411598 
L 406.636401 276.414195 
L 406.636401 276.522607 
L 406.739377 277.255366 
L 406.739377 277.255366 
L 406.790865 277.323584 
L 406.790865 277.366312 
L 406.893841 278.070298 
L 406.893841 278.070298 
L 406.945329 278.166304 
L 406.945329 278.181314 
L 407.048304 278.902771 
L 407.048304 278.902771 
L 407.099792 278.989103 
L 407.099792 279.013827 
L 407.202768 279.550699 
L 407.202768 279.550699 
L 407.288581 279.604951 
L 407.288581 279.661721 
L 407.391557 280.291217 
L 407.391557 280.291217 
L 407.40872 280.291217 
L 407.40872 280.40228 
L 407.511696 281.018013 
L 407.511696 281.018013 
L 407.546021 281.117787 
L 407.546021 281.129013 
L 407.648997 281.614494 
L 407.648997 281.614494 
L 407.683322 281.651559 
L 407.683322 281.725557 
L 407.786298 282.480719 
L 407.786298 282.480719 
L 407.820623 282.502216 
L 407.820623 282.591794 
L 407.923599 283.168223 
L 407.923599 283.168223 
L 407.992249 283.266175 
L 407.992249 283.279229 
L 408.095225 283.638856 
L 408.095225 283.638856 
L 408.12955 283.734461 
L 408.12955 283.74994 
L 408.232526 283.956661 
L 408.232526 283.956661 
L 408.284014 284.019273 
L 408.284014 284.067682 
L 408.38699 284.722087 
L 408.38699 284.722087 
L 408.438478 284.787018 
L 408.438478 284.833164 
L 408.541453 285.211709 
L 408.541453 285.211709 
L 408.592941 285.2836 
L 408.592941 285.322733 
L 408.695917 285.831798 
L 408.695917 285.831798 
L 408.71308 285.831798 
L 408.71308 285.942823 
L 408.816055 286.185501 
L 408.816055 286.185501 
L 408.919031 286.28022 
L 408.919031 286.296538 
L 409.022007 286.748721 
L 409.022007 286.748721 
L 409.056332 286.794841 
L 409.056332 286.859829 
L 409.159308 287.484358 
L 409.159308 287.484358 
L 409.210796 287.578362 
L 409.210796 287.595452 
L 409.313772 288.037251 
L 409.313772 288.037251 
L 409.348097 288.107221 
L 409.348097 288.148311 
L 409.43391 288.711905 
L 409.451073 288.711905 
L 409.485398 288.791655 
L 409.485398 288.822995 
L 409.588374 289.354533 
L 409.588374 289.354533 
L 409.674187 289.450909 
L 409.674187 289.465593 
L 409.777163 289.732664 
L 409.777163 289.732664 
L 409.862976 289.808269 
L 409.862976 289.843719 
L 409.965952 290.387169 
L 409.965952 290.387169 
L 410.000277 290.408441 
L 410.000277 290.498239 
L 410.103253 290.661688 
L 410.103253 290.661688 
L 410.15474 290.771223 
L 410.15474 290.772774 
L 410.257716 291.147715 
L 410.257716 291.147715 
L 410.309204 291.178365 
L 410.309204 291.258778 
L 410.41218 291.590237 
L 410.41218 291.590237 
L 410.48083 291.684032 
L 410.48083 291.70134 
L 410.583806 292.324862 
L 410.583806 292.324862 
L 410.635294 292.431144 
L 410.635294 292.435966 
L 410.73827 292.865726 
L 410.73827 292.865726 
L 410.80692 292.953399 
L 410.80692 292.976813 
L 410.909896 293.46327 
L 410.909896 293.46327 
L 410.944221 293.528916 
L 410.944221 293.574381 
L 411.047197 293.856167 
L 411.047197 293.856167 
L 411.098685 293.946789 
L 411.098685 293.967252 
L 411.201661 294.210572 
L 411.201661 294.210572 
L 411.253149 294.305401 
L 411.253149 294.321683 
L 411.356125 294.76892 
L 411.356125 294.76892 
L 411.39045 294.828494 
L 411.39045 294.880012 
L 411.493426 295.339198 
L 411.493426 295.339198 
L 411.527751 295.444734 
L 411.527751 295.45029 
L 411.630727 295.888196 
L 411.630727 295.888196 
L 411.733702 295.953676 
L 411.733702 295.999291 
L 411.836678 296.319131 
L 411.836678 296.319131 
L 411.853841 296.319131 
L 411.853841 296.430233 
L 411.956817 296.73738 
L 411.956817 296.73738 
L 412.008304 296.816378 
L 412.008304 296.848479 
L 412.11128 297.1016 
L 412.11128 297.1016 
L 412.145606 297.170928 
L 412.145606 297.212694 
L 412.248581 297.679539 
L 412.248581 297.679539 
L 412.282907 297.756251 
L 412.282907 297.790641 
L 412.385882 298.158243 
L 412.385882 298.158243 
L 412.420208 298.169627 
L 412.420208 298.269343 
L 412.523183 298.66715 
L 412.523183 298.66715 
L 412.557509 298.673172 
L 412.557509 298.77826 
L 412.660484 299.210885 
L 412.660484 299.210885 
L 412.677647 299.210885 
L 412.677647 299.321986 
L 412.780623 299.735538 
L 412.780623 299.735538 
L 412.814948 299.746585 
L 412.814948 299.846645 
L 412.917924 300.266477 
L 412.917924 300.266477 
L 412.952249 300.278058 
L 412.952249 300.377579 
L 413.055225 300.911282 
L 413.055225 300.911282 
L 413.072388 300.911282 
L 413.072388 301.022392 
L 413.175363 301.449647 
L 413.175363 301.449647 
L 413.226851 301.527164 
L 413.226851 301.560754 
L 413.329827 301.957653 
L 413.329827 301.957653 
L 413.398478 302.036415 
L 413.398478 302.06876 
L 413.501453 302.196548 
L 413.501453 302.196548 
L 413.535779 302.204843 
L 413.535779 302.307657 
L 413.638754 302.749092 
L 413.638754 302.749092 
L 413.707405 302.859175 
L 413.707405 302.860202 
L 413.810381 303.078473 
L 413.810381 303.078473 
L 413.827543 303.078473 
L 413.827543 303.18958 
L 413.930519 303.445115 
L 413.930519 303.445115 
L 413.947682 303.445115 
L 413.947682 303.556224 
L 414.050657 303.859679 
L 414.050657 303.859679 
L 414.06782 303.859679 
L 414.06782 303.970789 
L 414.170796 304.243453 
L 414.170796 304.243453 
L 414.222284 304.348019 
L 414.222284 304.354564 
L 414.32526 304.970958 
L 414.32526 304.970958 
L 414.376747 305.026757 
L 414.376747 305.082069 
L 414.479723 305.325222 
L 414.479723 305.325222 
L 414.548374 305.409283 
L 414.548374 305.436332 
L 414.651349 306.045102 
L 414.651349 306.045102 
L 414.685675 306.141234 
L 414.685675 306.156213 
L 414.702837 306.435424 
L 414.702837 306.435424 
" clip-path="url(#pc475b48c99)" style="fill: none; stroke: #1f77b4; stroke-width: 1.5; stroke-linecap: square"/>
   </g>
   <g id="patch_3">
    <path d="M 57.6 307.584 
L 57.6 41.472 
" style="fill: none; stroke: #000000; stroke-width: 0.8; stroke-linejoin: miter; stroke-linecap: square"/>
   </g>
   <g id="patch_4">
    <path d="M 414.72 307.584 
L 414.72 41.472 
" style="fill: none; stroke: #000000; stroke-width: 0.8; stroke-linejoin: miter; stroke-linecap: square"/>
   </g>
   <g id="patch_5">
    <path d="M 57.6 307.584 
L 414.72 307.584 
" style="fill: none; stroke: #000000; stroke-width: 0.8; stroke-linejoin: miter; stroke-linecap: square"/>
   </g>
   <g id="patch_6">
    <path d="M 57.6 41.472 
L 414.72 41.472 
" style="fill: none; stroke: #000000; stroke-width: 0.8; stroke-linejoin: miter; stroke-linecap: square"/>
   </g>
  </g>
 </g>
 <defs>
  <clipPath id="pc475b48c99">
   <rect x="57.6" y="41.472" width="357.12" height="266.112"/>
  </clipPath>
 </defs>
</svg>
