<?xml version="1.0" encoding="utf-8" standalone="no"?>
<!DOCTYPE svg PUBLIC "-//W3C//DTD SVG 1.1//EN"
  "http://www.w3.org/Graphics/SVG/1.1/DTD/svg11.dtd">
<svg xmlns:xlink="http://www.w3.org/1999/xlink" width="460.8pt" height="345.6pt" viewBox="0 0 460.8 345.6" xmlns="http://www.w3.org/2000/svg" version="1.1">
 <metadata>
  <rdf:RDF xmlns:dc="http://purl.org/dc/elements/1.1/" xmlns:cc="http://creativecommons.org/ns#" xmlns:rdf="http://www.w3.org/1999/02/22-rdf-syntax-ns#">
   <cc:Work>
    <dc:type rdf:resource="http://purl.org/dc/dcmitype/StillImage"/>
    <dc:date>2023-12-28T18:43:26.195846</dc:date>
    <dc:format>image/svg+xml</dc:format>
    <dc:creator>
     <cc:Agent>
      <dc:title>Matplotlib v3.8.0, https://matplotlib.org/</dc:title>
     </cc:Agent>
    </dc:creator>
   </cc:Work>
  </rdf:RDF>
 </metadata>
 <defs>
  <style type="text/css">*{stroke-linejoin: round; stroke-linecap: butt}</style>
 </defs>
 <g id="figure_1">
  <g id="patch_1">
   <path d="M 0 345.6 
L 460.8 345.6 
L 460.8 0 
L 0 0 
z
" style="fill: #ffffff"/>
  </g>
  <g id="axes_1">
   <g id="patch_2">
    <path d="M 57.6 307.584 
L 414.72 307.584 
L 414.72 41.472 
L 57.6 41.472 
z
" style="fill: #ffffff"/>
   </g>
   <g id="matplotlib.axis_1">
    <g id="xtick_1">
     <g id="line2d_1">
      <defs>
       <path id="m6c3c324e72" d="M 0 0 
L 0 3.5 
" style="stroke: #000000; stroke-width: 0.8"/>
      </defs>
      <g>
       <use xlink:href="#m6c3c324e72" x="57.6" y="307.584" style="stroke: #000000; stroke-width: 0.8"/>
      </g>
     </g>
     <g id="text_1">
      <!-- 0.0 -->
      <g transform="translate(49.648438 322.182437) scale(0.1 -0.1)">
       <defs>
        <path id="DejaVuSans-30" d="M 2034 4250 
Q 1547 4250 1301 3770 
Q 1056 3291 1056 2328 
Q 1056 1369 1301 889 
Q 1547 409 2034 409 
Q 2525 409 2770 889 
Q 3016 1369 3016 2328 
Q 3016 3291 2770 3770 
Q 2525 4250 2034 4250 
z
M 2034 4750 
Q 2819 4750 3233 4129 
Q 3647 3509 3647 2328 
Q 3647 1150 3233 529 
Q 2819 -91 2034 -91 
Q 1250 -91 836 529 
Q 422 1150 422 2328 
Q 422 3509 836 4129 
Q 1250 4750 2034 4750 
z
" transform="scale(0.015625)"/>
        <path id="DejaVuSans-2e" d="M 684 794 
L 1344 794 
L 1344 0 
L 684 0 
L 684 794 
z
" transform="scale(0.015625)"/>
       </defs>
       <use xlink:href="#DejaVuSans-30"/>
       <use xlink:href="#DejaVuSans-2e" x="63.623047"/>
       <use xlink:href="#DejaVuSans-30" x="95.410156"/>
      </g>
     </g>
    </g>
    <g id="xtick_2">
     <g id="line2d_2">
      <g>
       <use xlink:href="#m6c3c324e72" x="129.024" y="307.584" style="stroke: #000000; stroke-width: 0.8"/>
      </g>
     </g>
     <g id="text_2">
      <!-- 0.2 -->
      <g transform="translate(121.072438 322.182437) scale(0.1 -0.1)">
       <defs>
        <path id="DejaVuSans-32" d="M 1228 531 
L 3431 531 
L 3431 0 
L 469 0 
L 469 531 
Q 828 903 1448 1529 
Q 2069 2156 2228 2338 
Q 2531 2678 2651 2914 
Q 2772 3150 2772 3378 
Q 2772 3750 2511 3984 
Q 2250 4219 1831 4219 
Q 1534 4219 1204 4116 
Q 875 4013 500 3803 
L 500 4441 
Q 881 4594 1212 4672 
Q 1544 4750 1819 4750 
Q 2544 4750 2975 4387 
Q 3406 4025 3406 3419 
Q 3406 3131 3298 2873 
Q 3191 2616 2906 2266 
Q 2828 2175 2409 1742 
Q 1991 1309 1228 531 
z
" transform="scale(0.015625)"/>
       </defs>
       <use xlink:href="#DejaVuSans-30"/>
       <use xlink:href="#DejaVuSans-2e" x="63.623047"/>
       <use xlink:href="#DejaVuSans-32" x="95.410156"/>
      </g>
     </g>
    </g>
    <g id="xtick_3">
     <g id="line2d_3">
      <g>
       <use xlink:href="#m6c3c324e72" x="200.448" y="307.584" style="stroke: #000000; stroke-width: 0.8"/>
      </g>
     </g>
     <g id="text_3">
      <!-- 0.4 -->
      <g transform="translate(192.496438 322.182437) scale(0.1 -0.1)">
       <defs>
        <path id="DejaVuSans-34" d="M 2419 4116 
L 825 1625 
L 2419 1625 
L 2419 4116 
z
M 2253 4666 
L 3047 4666 
L 3047 1625 
L 3713 1625 
L 3713 1100 
L 3047 1100 
L 3047 0 
L 2419 0 
L 2419 1100 
L 313 1100 
L 313 1709 
L 2253 4666 
z
" transform="scale(0.015625)"/>
       </defs>
       <use xlink:href="#DejaVuSans-30"/>
       <use xlink:href="#DejaVuSans-2e" x="63.623047"/>
       <use xlink:href="#DejaVuSans-34" x="95.410156"/>
      </g>
     </g>
    </g>
    <g id="xtick_4">
     <g id="line2d_4">
      <g>
       <use xlink:href="#m6c3c324e72" x="271.872" y="307.584" style="stroke: #000000; stroke-width: 0.8"/>
      </g>
     </g>
     <g id="text_4">
      <!-- 0.6 -->
      <g transform="translate(263.920438 322.182437) scale(0.1 -0.1)">
       <defs>
        <path id="DejaVuSans-36" d="M 2113 2584 
Q 1688 2584 1439 2293 
Q 1191 2003 1191 1497 
Q 1191 994 1439 701 
Q 1688 409 2113 409 
Q 2538 409 2786 701 
Q 3034 994 3034 1497 
Q 3034 2003 2786 2293 
Q 2538 2584 2113 2584 
z
M 3366 4563 
L 3366 3988 
Q 3128 4100 2886 4159 
Q 2644 4219 2406 4219 
Q 1781 4219 1451 3797 
Q 1122 3375 1075 2522 
Q 1259 2794 1537 2939 
Q 1816 3084 2150 3084 
Q 2853 3084 3261 2657 
Q 3669 2231 3669 1497 
Q 3669 778 3244 343 
Q 2819 -91 2113 -91 
Q 1303 -91 875 529 
Q 447 1150 447 2328 
Q 447 3434 972 4092 
Q 1497 4750 2381 4750 
Q 2619 4750 2861 4703 
Q 3103 4656 3366 4563 
z
" transform="scale(0.015625)"/>
       </defs>
       <use xlink:href="#DejaVuSans-30"/>
       <use xlink:href="#DejaVuSans-2e" x="63.623047"/>
       <use xlink:href="#DejaVuSans-36" x="95.410156"/>
      </g>
     </g>
    </g>
    <g id="xtick_5">
     <g id="line2d_5">
      <g>
       <use xlink:href="#m6c3c324e72" x="343.296" y="307.584" style="stroke: #000000; stroke-width: 0.8"/>
      </g>
     </g>
     <g id="text_5">
      <!-- 0.8 -->
      <g transform="translate(335.344438 322.182437) scale(0.1 -0.1)">
       <defs>
        <path id="DejaVuSans-38" d="M 2034 2216 
Q 1584 2216 1326 1975 
Q 1069 1734 1069 1313 
Q 1069 891 1326 650 
Q 1584 409 2034 409 
Q 2484 409 2743 651 
Q 3003 894 3003 1313 
Q 3003 1734 2745 1975 
Q 2488 2216 2034 2216 
z
M 1403 2484 
Q 997 2584 770 2862 
Q 544 3141 544 3541 
Q 544 4100 942 4425 
Q 1341 4750 2034 4750 
Q 2731 4750 3128 4425 
Q 3525 4100 3525 3541 
Q 3525 3141 3298 2862 
Q 3072 2584 2669 2484 
Q 3125 2378 3379 2068 
Q 3634 1759 3634 1313 
Q 3634 634 3220 271 
Q 2806 -91 2034 -91 
Q 1263 -91 848 271 
Q 434 634 434 1313 
Q 434 1759 690 2068 
Q 947 2378 1403 2484 
z
M 1172 3481 
Q 1172 3119 1398 2916 
Q 1625 2713 2034 2713 
Q 2441 2713 2670 2916 
Q 2900 3119 2900 3481 
Q 2900 3844 2670 4047 
Q 2441 4250 2034 4250 
Q 1625 4250 1398 4047 
Q 1172 3844 1172 3481 
z
" transform="scale(0.015625)"/>
       </defs>
       <use xlink:href="#DejaVuSans-30"/>
       <use xlink:href="#DejaVuSans-2e" x="63.623047"/>
       <use xlink:href="#DejaVuSans-38" x="95.410156"/>
      </g>
     </g>
    </g>
    <g id="xtick_6">
     <g id="line2d_6">
      <g>
       <use xlink:href="#m6c3c324e72" x="414.72" y="307.584" style="stroke: #000000; stroke-width: 0.8"/>
      </g>
     </g>
     <g id="text_6">
      <!-- 1.0 -->
      <g transform="translate(406.768438 322.182437) scale(0.1 -0.1)">
       <defs>
        <path id="DejaVuSans-31" d="M 794 531 
L 1825 531 
L 1825 4091 
L 703 3866 
L 703 4441 
L 1819 4666 
L 2450 4666 
L 2450 531 
L 3481 531 
L 3481 0 
L 794 0 
L 794 531 
z
" transform="scale(0.015625)"/>
       </defs>
       <use xlink:href="#DejaVuSans-31"/>
       <use xlink:href="#DejaVuSans-2e" x="63.623047"/>
       <use xlink:href="#DejaVuSans-30" x="95.410156"/>
      </g>
     </g>
    </g>
    <g id="text_7">
     <!-- recall -->
     <g transform="translate(222.549062 335.860562) scale(0.1 -0.1)">
      <defs>
       <path id="DejaVuSans-72" d="M 2631 2963 
Q 2534 3019 2420 3045 
Q 2306 3072 2169 3072 
Q 1681 3072 1420 2755 
Q 1159 2438 1159 1844 
L 1159 0 
L 581 0 
L 581 3500 
L 1159 3500 
L 1159 2956 
Q 1341 3275 1631 3429 
Q 1922 3584 2338 3584 
Q 2397 3584 2469 3576 
Q 2541 3569 2628 3553 
L 2631 2963 
z
" transform="scale(0.015625)"/>
       <path id="DejaVuSans-65" d="M 3597 1894 
L 3597 1613 
L 953 1613 
Q 991 1019 1311 708 
Q 1631 397 2203 397 
Q 2534 397 2845 478 
Q 3156 559 3463 722 
L 3463 178 
Q 3153 47 2828 -22 
Q 2503 -91 2169 -91 
Q 1331 -91 842 396 
Q 353 884 353 1716 
Q 353 2575 817 3079 
Q 1281 3584 2069 3584 
Q 2775 3584 3186 3129 
Q 3597 2675 3597 1894 
z
M 3022 2063 
Q 3016 2534 2758 2815 
Q 2500 3097 2075 3097 
Q 1594 3097 1305 2825 
Q 1016 2553 972 2059 
L 3022 2063 
z
" transform="scale(0.015625)"/>
       <path id="DejaVuSans-63" d="M 3122 3366 
L 3122 2828 
Q 2878 2963 2633 3030 
Q 2388 3097 2138 3097 
Q 1578 3097 1268 2742 
Q 959 2388 959 1747 
Q 959 1106 1268 751 
Q 1578 397 2138 397 
Q 2388 397 2633 464 
Q 2878 531 3122 666 
L 3122 134 
Q 2881 22 2623 -34 
Q 2366 -91 2075 -91 
Q 1284 -91 818 406 
Q 353 903 353 1747 
Q 353 2603 823 3093 
Q 1294 3584 2113 3584 
Q 2378 3584 2631 3529 
Q 2884 3475 3122 3366 
z
" transform="scale(0.015625)"/>
       <path id="DejaVuSans-61" d="M 2194 1759 
Q 1497 1759 1228 1600 
Q 959 1441 959 1056 
Q 959 750 1161 570 
Q 1363 391 1709 391 
Q 2188 391 2477 730 
Q 2766 1069 2766 1631 
L 2766 1759 
L 2194 1759 
z
M 3341 1997 
L 3341 0 
L 2766 0 
L 2766 531 
Q 2569 213 2275 61 
Q 1981 -91 1556 -91 
Q 1019 -91 701 211 
Q 384 513 384 1019 
Q 384 1609 779 1909 
Q 1175 2209 1959 2209 
L 2766 2209 
L 2766 2266 
Q 2766 2663 2505 2880 
Q 2244 3097 1772 3097 
Q 1472 3097 1187 3025 
Q 903 2953 641 2809 
L 641 3341 
Q 956 3463 1253 3523 
Q 1550 3584 1831 3584 
Q 2591 3584 2966 3190 
Q 3341 2797 3341 1997 
z
" transform="scale(0.015625)"/>
       <path id="DejaVuSans-6c" d="M 603 4863 
L 1178 4863 
L 1178 0 
L 603 0 
L 603 4863 
z
" transform="scale(0.015625)"/>
      </defs>
      <use xlink:href="#DejaVuSans-72"/>
      <use xlink:href="#DejaVuSans-65" x="38.863281"/>
      <use xlink:href="#DejaVuSans-63" x="100.386719"/>
      <use xlink:href="#DejaVuSans-61" x="155.367188"/>
      <use xlink:href="#DejaVuSans-6c" x="216.646484"/>
      <use xlink:href="#DejaVuSans-6c" x="244.429688"/>
     </g>
    </g>
   </g>
   <g id="matplotlib.axis_2">
    <g id="ytick_1">
     <g id="line2d_7">
      <defs>
       <path id="mfa4e509fed" d="M 0 0 
L -3.5 0 
" style="stroke: #000000; stroke-width: 0.8"/>
      </defs>
      <g>
       <use xlink:href="#mfa4e509fed" x="57.6" y="307.584" style="stroke: #000000; stroke-width: 0.8"/>
      </g>
     </g>
     <g id="text_8">
      <!-- 0.0 -->
      <g transform="translate(34.696875 311.383219) scale(0.1 -0.1)">
       <use xlink:href="#DejaVuSans-30"/>
       <use xlink:href="#DejaVuSans-2e" x="63.623047"/>
       <use xlink:href="#DejaVuSans-30" x="95.410156"/>
      </g>
     </g>
    </g>
    <g id="ytick_2">
     <g id="line2d_8">
      <g>
       <use xlink:href="#mfa4e509fed" x="57.6" y="254.3616" style="stroke: #000000; stroke-width: 0.8"/>
      </g>
     </g>
     <g id="text_9">
      <!-- 0.2 -->
      <g transform="translate(34.696875 258.160819) scale(0.1 -0.1)">
       <use xlink:href="#DejaVuSans-30"/>
       <use xlink:href="#DejaVuSans-2e" x="63.623047"/>
       <use xlink:href="#DejaVuSans-32" x="95.410156"/>
      </g>
     </g>
    </g>
    <g id="ytick_3">
     <g id="line2d_9">
      <g>
       <use xlink:href="#mfa4e509fed" x="57.6" y="201.1392" style="stroke: #000000; stroke-width: 0.8"/>
      </g>
     </g>
     <g id="text_10">
      <!-- 0.4 -->
      <g transform="translate(34.696875 204.938419) scale(0.1 -0.1)">
       <use xlink:href="#DejaVuSans-30"/>
       <use xlink:href="#DejaVuSans-2e" x="63.623047"/>
       <use xlink:href="#DejaVuSans-34" x="95.410156"/>
      </g>
     </g>
    </g>
    <g id="ytick_4">
     <g id="line2d_10">
      <g>
       <use xlink:href="#mfa4e509fed" x="57.6" y="147.9168" style="stroke: #000000; stroke-width: 0.8"/>
      </g>
     </g>
     <g id="text_11">
      <!-- 0.6 -->
      <g transform="translate(34.696875 151.716019) scale(0.1 -0.1)">
       <use xlink:href="#DejaVuSans-30"/>
       <use xlink:href="#DejaVuSans-2e" x="63.623047"/>
       <use xlink:href="#DejaVuSans-36" x="95.410156"/>
      </g>
     </g>
    </g>
    <g id="ytick_5">
     <g id="line2d_11">
      <g>
       <use xlink:href="#mfa4e509fed" x="57.6" y="94.6944" style="stroke: #000000; stroke-width: 0.8"/>
      </g>
     </g>
     <g id="text_12">
      <!-- 0.8 -->
      <g transform="translate(34.696875 98.493619) scale(0.1 -0.1)">
       <use xlink:href="#DejaVuSans-30"/>
       <use xlink:href="#DejaVuSans-2e" x="63.623047"/>
       <use xlink:href="#DejaVuSans-38" x="95.410156"/>
      </g>
     </g>
    </g>
    <g id="ytick_6">
     <g id="line2d_12">
      <g>
       <use xlink:href="#mfa4e509fed" x="57.6" y="41.472" style="stroke: #000000; stroke-width: 0.8"/>
      </g>
     </g>
     <g id="text_13">
      <!-- 1.0 -->
      <g transform="translate(34.696875 45.271219) scale(0.1 -0.1)">
       <use xlink:href="#DejaVuSans-31"/>
       <use xlink:href="#DejaVuSans-2e" x="63.623047"/>
       <use xlink:href="#DejaVuSans-30" x="95.410156"/>
      </g>
     </g>
    </g>
    <g id="text_14">
     <!-- precision -->
     <g transform="translate(28.617187 197.081906) rotate(-90) scale(0.1 -0.1)">
      <defs>
       <path id="DejaVuSans-70" d="M 1159 525 
L 1159 -1331 
L 581 -1331 
L 581 3500 
L 1159 3500 
L 1159 2969 
Q 1341 3281 1617 3432 
Q 1894 3584 2278 3584 
Q 2916 3584 3314 3078 
Q 3713 2572 3713 1747 
Q 3713 922 3314 415 
Q 2916 -91 2278 -91 
Q 1894 -91 1617 61 
Q 1341 213 1159 525 
z
M 3116 1747 
Q 3116 2381 2855 2742 
Q 2594 3103 2138 3103 
Q 1681 3103 1420 2742 
Q 1159 2381 1159 1747 
Q 1159 1113 1420 752 
Q 1681 391 2138 391 
Q 2594 391 2855 752 
Q 3116 1113 3116 1747 
z
" transform="scale(0.015625)"/>
       <path id="DejaVuSans-69" d="M 603 3500 
L 1178 3500 
L 1178 0 
L 603 0 
L 603 3500 
z
M 603 4863 
L 1178 4863 
L 1178 4134 
L 603 4134 
L 603 4863 
z
" transform="scale(0.015625)"/>
       <path id="DejaVuSans-73" d="M 2834 3397 
L 2834 2853 
Q 2591 2978 2328 3040 
Q 2066 3103 1784 3103 
Q 1356 3103 1142 2972 
Q 928 2841 928 2578 
Q 928 2378 1081 2264 
Q 1234 2150 1697 2047 
L 1894 2003 
Q 2506 1872 2764 1633 
Q 3022 1394 3022 966 
Q 3022 478 2636 193 
Q 2250 -91 1575 -91 
Q 1294 -91 989 -36 
Q 684 19 347 128 
L 347 722 
Q 666 556 975 473 
Q 1284 391 1588 391 
Q 1994 391 2212 530 
Q 2431 669 2431 922 
Q 2431 1156 2273 1281 
Q 2116 1406 1581 1522 
L 1381 1569 
Q 847 1681 609 1914 
Q 372 2147 372 2553 
Q 372 3047 722 3315 
Q 1072 3584 1716 3584 
Q 2034 3584 2315 3537 
Q 2597 3491 2834 3397 
z
" transform="scale(0.015625)"/>
       <path id="DejaVuSans-6f" d="M 1959 3097 
Q 1497 3097 1228 2736 
Q 959 2375 959 1747 
Q 959 1119 1226 758 
Q 1494 397 1959 397 
Q 2419 397 2687 759 
Q 2956 1122 2956 1747 
Q 2956 2369 2687 2733 
Q 2419 3097 1959 3097 
z
M 1959 3584 
Q 2709 3584 3137 3096 
Q 3566 2609 3566 1747 
Q 3566 888 3137 398 
Q 2709 -91 1959 -91 
Q 1206 -91 779 398 
Q 353 888 353 1747 
Q 353 2609 779 3096 
Q 1206 3584 1959 3584 
z
" transform="scale(0.015625)"/>
       <path id="DejaVuSans-6e" d="M 3513 2113 
L 3513 0 
L 2938 0 
L 2938 2094 
Q 2938 2591 2744 2837 
Q 2550 3084 2163 3084 
Q 1697 3084 1428 2787 
Q 1159 2491 1159 1978 
L 1159 0 
L 581 0 
L 581 3500 
L 1159 3500 
L 1159 2956 
Q 1366 3272 1645 3428 
Q 1925 3584 2291 3584 
Q 2894 3584 3203 3211 
Q 3513 2838 3513 2113 
z
" transform="scale(0.015625)"/>
      </defs>
      <use xlink:href="#DejaVuSans-70"/>
      <use xlink:href="#DejaVuSans-72" x="63.476562"/>
      <use xlink:href="#DejaVuSans-65" x="102.339844"/>
      <use xlink:href="#DejaVuSans-63" x="163.863281"/>
      <use xlink:href="#DejaVuSans-69" x="218.84375"/>
      <use xlink:href="#DejaVuSans-73" x="246.626953"/>
      <use xlink:href="#DejaVuSans-69" x="298.726562"/>
      <use xlink:href="#DejaVuSans-6f" x="326.509766"/>
      <use xlink:href="#DejaVuSans-6e" x="387.691406"/>
     </g>
    </g>
   </g>
   <g id="line2d_13">
    <path d="M 57.622187 41.472 
L 93.343062 41.472 
L 93.343062 41.58725 
L 93.453996 41.58725 
L 139.491769 41.688117 
L 139.491769 41.750651 
L 139.602704 41.750651 
L 162.810179 41.808283 
L 162.810179 41.863588 
L 162.921113 41.863588 
L 167.735666 41.953602 
L 167.735666 42.005718 
L 167.8466 42.005718 
L 173.348946 42.082699 
L 173.348946 42.128194 
L 173.459881 42.128194 
L 184.90831 42.211971 
L 184.90831 42.255631 
L 185.019245 42.255631 
L 189.545368 42.363946 
L 189.545368 42.398758 
L 189.656302 42.398758 
L 196.023936 42.491749 
L 196.023936 42.518202 
L 196.134871 42.518202 
L 200.416938 42.624535 
L 200.439125 42.629703 
L 200.527873 42.629703 
L 209.00326 42.714063 
L 209.00326 42.747482 
L 209.114195 42.747482 
L 210.600716 42.854001 
L 210.689463 42.999185 
L 210.71165 42.999185 
L 213.063459 43.095094 
L 213.085646 43.122772 
L 213.174394 43.122772 
L 222.115706 43.218984 
L 222.115706 43.252966 
L 222.22664 43.252966 
L 222.714751 43.353779 
L 222.714751 43.387496 
L 222.825686 43.387496 
L 225.909662 43.491165 
L 225.909662 43.523294 
L 226.020596 43.523294 
L 226.664016 43.619741 
L 226.752763 43.683553 
L 226.77495 43.683553 
L 228.283658 43.769616 
L 228.372406 43.856516 
L 228.394592 43.856516 
L 229.614871 43.954261 
L 229.725805 44.019014 
L 230.347038 44.111463 
L 230.391412 44.200145 
L 230.457972 44.200145 
L 231.412008 44.295113 
L 231.412008 44.321165 
L 231.522942 44.321165 
L 232.67666 44.406936 
L 232.67666 44.43583 
L 232.787594 44.43583 
L 233.142584 44.530759 
L 233.142584 44.560533 
L 233.253519 44.560533 
L 233.475388 44.656189 
L 233.475388 44.682156 
L 233.586322 44.682156 
L 234.8066 44.762615 
L 234.850974 44.804117 
L 234.917535 44.804117 
L 237.22497 44.911146 
L 237.291531 44.964114 
L 237.335905 44.964114 
L 238.134632 45.053284 
L 238.134632 45.111634 
L 238.245567 45.111634 
L 239.243976 45.22141 
L 239.243976 45.249817 
L 239.354911 45.249817 
L 240.419881 45.354524 
L 240.419881 45.382606 
L 240.530815 45.382606 
L 240.70831 45.473684 
L 240.797058 45.524628 
L 240.819245 45.524628 
L 242.12827 45.629508 
L 242.12827 45.645198 
L 242.239205 45.645198 
L 243.370736 45.756059 
L 243.459483 45.845246 
L 243.48167 45.845246 
L 244.280398 45.949697 
L 244.280398 45.959816 
L 244.391332 45.959816 
L 245.744732 46.06705 
L 245.789105 46.123338 
L 245.855666 46.123338 
L 246.587833 46.227835 
L 246.587833 46.254658 
L 246.698767 46.254658 
L 246.898449 46.340463 
L 246.920636 46.39547 
L 247.009384 46.39547 
L 248.38497 46.482096 
L 248.473718 46.52725 
L 248.495905 46.52725 
L 249.117137 46.611632 
L 249.205885 46.752599 
L 249.228072 46.752599 
L 249.405567 46.840688 
L 249.405567 46.865959 
L 249.516501 46.865959 
L 249.849304 46.946442 
L 249.849304 46.975899 
L 249.871491 47.031024 
L 249.960239 47.031024 
L 250.581471 47.131409 
L 250.648032 47.178455 
L 250.692406 47.178455 
L 251.779563 47.271915 
L 251.846123 47.413326 
L 251.890497 47.413326 
L 252.467356 47.483655 
L 252.467356 47.512597 
L 252.467356 47.537484 
L 252.57829 47.537484 
L 253.399205 47.628454 
L 253.487952 47.707162 
L 253.510139 47.707162 
L 254.220119 47.803812 
L 254.242306 47.883985 
L 254.331054 47.883985 
L 254.64167 47.990341 
L 254.663857 48.071508 
L 254.752604 48.071508 
L 255.085408 48.14666 
L 255.085408 48.175073 
L 255.085408 48.197588 
L 255.196342 48.197588 
L 255.773201 48.293896 
L 255.884135 48.345207 
L 256.305686 48.388886 
L 256.305686 48.445251 
L 256.41662 48.495484 
L 257.06004 48.58791 
L 257.06004 48.609765 
L 257.170974 48.609765 
L 257.525964 48.711579 
L 257.548151 48.781194 
L 257.636899 48.781194 
L 258.213757 48.882279 
L 258.213757 48.905296 
L 258.324692 48.905296 
L 258.391252 48.987028 
L 258.391252 49.014792 
L 258.391252 49.034432 
L 258.502187 49.034432 
L 258.990298 49.131333 
L 259.101233 49.207649 
L 260.099642 49.310476 
L 260.144016 49.412689 
L 260.210577 49.412689 
L 260.676501 49.480457 
L 260.676501 49.507804 
L 260.787435 49.582938 
L 261.519602 49.693301 
L 261.630537 49.742442 
L 262.007714 49.836959 
L 262.007714 49.856121 
L 262.118648 49.856121 
L 262.67332 49.945662 
L 262.67332 49.986248 
L 262.784254 49.986248 
L 263.117058 50.035629 
L 263.117058 50.089437 
L 263.205805 50.211994 
L 263.227992 50.211994 
L 264.004533 50.321199 
L 264.004533 50.367263 
L 264.115467 50.367263 
L 264.492644 50.460966 
L 264.559205 50.532421 
L 264.603579 50.532421 
L 265.069503 50.622691 
L 265.09169 50.723057 
L 265.180437 50.723057 
L 265.224811 50.828036 
L 265.224811 50.845808 
L 265.335746 50.845808 
L 265.668549 50.914419 
L 265.668549 50.940814 
L 265.735109 50.985764 
L 265.779483 50.985764 
L 265.890417 51.089189 
L 265.912604 51.134904 
L 266.001352 51.134904 
L 266.356342 51.22608 
L 266.400716 51.272544 
L 266.467276 51.272544 
L 266.755706 51.365246 
L 266.777893 51.411483 
L 266.86664 51.411483 
L 266.977575 51.511914 
L 267.066322 51.607019 
L 267.088509 51.607019 
L 267.421312 51.673772 
L 267.421312 51.699792 
L 267.51006 51.797524 
L 267.532247 51.797524 
L 267.86505 51.886603 
L 267.953797 52.004422 
L 267.975984 52.004422 
L 268.597217 52.110033 
L 268.663777 52.205569 
L 268.708151 52.205569 
L 268.93002 52.24837 
L 268.93002 52.299802 
L 268.996581 52.342457 
L 269.040954 52.342457 
L 269.373757 52.431912 
L 269.373757 52.475427 
L 269.484692 52.475427 
L 269.595626 52.574456 
L 269.662187 52.716544 
L 269.706561 52.716544 
L 270.017177 52.808371 
L 270.083738 52.846806 
L 270.128111 52.846806 
L 270.682783 52.952173 
L 270.682783 52.969522 
L 270.793718 52.969522 
L 271.015586 53.061645 
L 271.104334 53.155868 
L 271.126521 53.155868 
L 271.792127 53.248266 
L 271.836501 53.291595 
L 271.903062 53.291595 
L 272.302425 53.397264 
L 272.324612 53.434448 
L 272.41336 53.434448 
L 273.034592 53.533511 
L 273.12334 53.62383 
L 273.145527 53.62383 
L 273.389583 53.713935 
L 273.47833 53.82869 
L 273.500517 53.82869 
L 273.811133 53.914682 
L 273.811133 53.939493 
L 273.811133 53.980538 
L 273.922068 53.980538 
L 274.077376 54.073476 
L 274.166123 54.129179 
L 274.18831 54.129179 
L 274.521113 54.221742 
L 274.609861 54.285759 
L 274.632048 54.285759 
L 274.876103 54.374243 
L 274.987038 54.462522 
L 275.297654 54.571312 
L 275.319841 54.67721 
L 275.408588 54.67721 
L 275.652644 54.722283 
L 275.652644 54.771169 
L 275.697018 54.8123 
L 275.763579 54.8123 
L 275.96326 54.899552 
L 276.052008 54.989207 
L 276.074195 54.989207 
L 276.451372 55.08989 
L 276.495746 55.179095 
L 276.562306 55.179095 
L 276.695427 55.245225 
L 276.695427 55.269454 
L 276.784175 55.358324 
L 276.806362 55.358324 
L 277.028231 55.467161 
L 277.139165 55.504703 
L 277.449781 55.610392 
L 277.449781 55.626353 
L 277.560716 55.626353 
L 278.292883 55.727096 
L 278.38163 55.785351 
L 278.403817 55.785351 
L 278.536938 55.87966 
L 278.647873 56.011984 
L 278.825368 56.100467 
L 278.936302 56.160818 
L 279.202545 56.267183 
L 279.291292 56.327218 
L 279.313479 56.327218 
L 279.624095 56.43029 
L 279.73503 56.491418 
L 279.956899 56.598261 
L 279.979085 56.707706 
L 280.067833 56.707706 
L 280.134394 56.728421 
L 280.134394 56.799131 
L 280.200954 56.858239 
L 280.245328 56.858239 
L 280.311889 56.858239 
L 280.311889 56.952338 
L 280.334076 56.990626 
L 280.422823 56.990626 
L 280.600318 57.050868 
L 280.600318 57.097794 
L 280.622505 57.159336 
L 280.711252 57.159336 
L 280.888748 57.266104 
L 280.977495 57.444185 
L 280.999682 57.444185 
L 281.066243 57.464546 
L 281.066243 57.534549 
L 281.177177 57.61879 
L 281.576541 57.686266 
L 281.576541 57.70951 
L 281.620915 57.765581 
L 281.687475 57.765581 
L 281.887157 57.850784 
L 281.887157 57.873965 
L 281.931531 57.949829 
L 281.998091 57.949829 
L 282.464016 58.019355 
L 282.464016 58.042446 
L 282.57495 58.099388 
L 282.841193 58.177702 
L 282.841193 58.200724 
L 282.841193 58.229744 
L 282.952127 58.229744 
L 283.440239 58.319801 
L 283.551173 58.400618 
L 283.706481 58.484396 
L 283.706481 58.507274 
L 283.817416 58.656264 
L 284.017097 58.759283 
L 284.017097 58.792179 
L 284.128032 58.792179 
L 284.549583 58.903236 
L 284.660517 58.981286 
L 284.749264 59.02505 
L 284.749264 59.070395 
L 284.771451 59.141701 
L 284.860199 59.141701 
L 285.148628 59.245085 
L 285.215189 59.301504 
L 285.259563 59.301504 
L 285.392684 59.385244 
L 285.392684 59.407789 
L 285.503618 59.533136 
L 285.969543 59.635162 
L 286.05829 59.715004 
L 286.080477 59.715004 
L 286.435467 59.824552 
L 286.546402 59.859317 
L 286.879205 59.969971 
L 286.990139 60.093617 
L 287.12326 60.174218 
L 287.12326 60.196451 
L 287.145447 60.294032 
L 287.234195 60.294032 
L 287.611372 60.403362 
L 287.722306 60.546337 
L 287.855427 60.649957 
L 287.966362 60.772013 
L 288.010736 60.79233 
L 288.010736 60.880454 
L 288.12167 60.949396 
L 288.410099 61.047075 
L 288.521034 61.203277 
L 288.83165 61.298656 
L 288.942584 61.395581 
L 289.075706 61.47581 
L 289.075706 61.497624 
L 289.142266 61.574155 
L 289.18664 61.574155 
L 289.297575 61.675884 
L 289.364135 61.730394 
L 289.408509 61.730394 
L 289.430696 61.730394 
L 289.430696 61.839034 
L 289.54163 61.999969 
L 289.696938 62.07755 
L 289.696938 62.0992 
L 289.785686 62.18913 
L 289.807873 62.18913 
L 290.074115 62.262732 
L 290.074115 62.284314 
L 290.140676 62.397166 
L 290.18505 62.397166 
L 290.384732 62.495596 
L 290.473479 62.592 
L 290.495666 62.592 
L 290.872843 62.691084 
L 290.983777 62.820494 
L 291.227833 62.91803 
L 291.338767 62.970841 
L 291.516262 63.064319 
L 291.560636 63.125008 
L 291.627197 63.125008 
L 292.026561 63.19118 
L 292.026561 63.233657 
L 292.115308 63.307186 
L 292.137495 63.307186 
L 292.359364 63.396066 
L 292.359364 63.41724 
L 292.403738 63.53274 
L 292.470298 63.53274 
L 292.536859 63.571187 
L 292.536859 63.634561 
L 292.581233 63.726631 
L 292.647793 63.726631 
L 292.780915 63.803238 
L 292.780915 63.824304 
L 292.847475 63.875868 
L 292.891849 63.875868 
L 293.158091 63.980697 
L 293.158091 63.988111 
L 293.269026 63.988111 
L 293.468708 64.037455 
L 293.468708 64.07938 
L 293.579642 64.358684 
L 293.712763 64.434356 
L 293.712763 64.455231 
L 293.823698 64.691509 
L 294.134314 64.771604 
L 294.134314 64.792384 
L 294.245249 64.925708 
L 294.37837 65.019321 
L 294.44493 65.079991 
L 294.489304 65.079991 
L 294.755547 65.150593 
L 294.755547 65.171253 
L 294.866481 65.324225 
L 295.021789 65.415065 
L 295.110537 65.567421 
L 295.132724 65.567421 
L 295.44334 65.664 
L 295.532087 65.823737 
L 295.554274 65.823737 
L 295.820517 65.91568 
L 295.931451 66.125734 
L 296.353002 66.232864 
L 296.44175 66.315691 
L 296.463936 66.315691 
L 296.818926 66.412311 
L 296.929861 66.501009 
L 297.196103 66.579011 
L 297.196103 66.599221 
L 297.262664 66.727897 
L 297.307038 66.727897 
L 297.551093 66.807519 
L 297.551093 66.827661 
L 297.662028 67.154541 
L 297.750775 67.170321 
L 297.750775 67.250559 
L 297.86171 67.357863 
L 298.150139 67.451973 
L 298.261074 67.656377 
L 298.616064 67.765296 
L 298.726998 67.869287 
L 298.860119 67.939951 
L 298.860119 67.979637 
L 298.971054 68.184417 
L 299.237296 68.278757 
L 299.326044 68.47809 
L 299.348231 68.47809 
L 299.525726 68.565446 
L 299.525726 68.585133 
L 299.592286 68.687502 
L 299.63666 68.687502 
L 299.858529 68.787408 
L 299.947276 68.891586 
L 299.969463 68.891586 
L 300.191332 68.949652 
L 300.191332 68.988788 
L 300.28008 69.209704 
L 300.302266 69.209704 
L 300.435388 69.276371 
L 300.435388 69.315361 
L 300.524135 69.431153 
L 300.546322 69.431153 
L 300.812565 69.51008 
L 300.812565 69.529508 
L 300.901312 69.63223 
L 300.923499 69.63223 
L 301.189742 69.742609 
L 301.300676 69.999449 
L 301.433797 70.10362 
L 301.478171 70.142837 
L 301.544732 70.142837 
L 301.655666 70.215203 
L 301.655666 70.253694 
L 301.7666 70.431881 
L 302.12159 70.530949 
L 302.232525 70.650853 
L 302.41002 70.710831 
L 302.41002 70.749042 
L 302.498767 70.963794 
L 302.520954 70.963794 
L 302.631889 71.03048 
L 302.631889 71.068554 
L 302.720636 71.165983 
L 302.742823 71.165983 
L 302.875944 71.232416 
L 302.875944 71.270388 
L 302.986879 71.445626 
L 303.097813 71.549589 
L 303.186561 71.681496 
L 303.208748 71.681496 
L 303.341869 71.768614 
L 303.341869 71.787479 
L 303.452803 71.921252 
L 303.585924 72.005611 
L 303.585924 72.02442 
L 303.696859 72.178863 
L 303.874354 72.274257 
L 303.985288 72.388171 
L 304.273718 72.491969 
L 304.384652 72.67993 
L 304.606521 72.790459 
L 304.717455 73.054245 
L 304.82839 73.155506 
L 304.917137 73.249077 
L 304.939324 73.249077 
L 305.227753 73.350874 
L 305.316501 73.538737 
L 305.338688 73.538737 
L 305.427435 73.623273 
L 305.427435 73.641686 
L 305.53837 73.920603 
L 305.627117 74.004693 
L 305.627117 74.023032 
L 305.693678 74.115072 
L 305.738052 74.115072 
L 305.871173 74.214621 
L 305.982107 74.290605 
L 306.159602 74.400368 
L 306.270537 74.619102 
L 306.425845 74.715236 
L 306.536779 74.917431 
L 306.669901 75.013092 
L 306.780835 75.191104 
L 306.936143 75.270891 
L 306.936143 75.288936 
L 307.002704 75.32728 
L 307.047078 75.32728 
L 307.291133 75.427066 
L 307.379881 75.537139 
L 307.402068 75.537139 
L 307.490815 75.60107 
L 307.490815 75.636975 
L 307.60175 75.674934 
L 307.712684 75.771885 
L 307.801431 75.870642 
L 307.823618 75.870642 
L 308.001113 75.952037 
L 308.001113 75.9699 
L 308.112048 76.132355 
L 308.356103 76.230321 
L 308.467038 76.392044 
L 308.600159 76.502863 
L 308.688907 76.590377 
L 308.711093 76.590377 
L 308.844215 76.61502 
L 308.844215 76.685809 
L 308.955149 76.899305 
L 309.154831 77.001053 
L 309.265765 77.155338 
L 309.398887 77.252617 
L 309.509821 77.426508 
L 309.820437 77.533717 
L 309.931372 77.709474 
L 310.020119 77.788461 
L 310.020119 77.805902 
L 310.131054 77.946149 
L 310.241988 78.004688 
L 310.241988 78.056857 
L 310.330736 78.387295 
L 310.352922 78.387295 
L 310.419483 78.433676 
L 310.419483 78.485614 
L 310.530417 78.638929 
L 310.752286 78.720058 
L 310.752286 78.737307 
L 310.863221 78.927174 
L 311.107276 79.036517 
L 311.218211 79.177025 
L 311.528827 79.274267 
L 311.573201 79.325684 
L 311.639761 79.325684 
L 311.661948 79.325684 
L 311.661948 79.428226 
L 311.772883 79.513594 
L 311.883817 79.604509 
L 311.883817 79.621549 
L 311.950378 79.774645 
L 311.994751 79.774645 
L 312.083499 79.851057 
L 312.083499 79.885034 
L 312.194433 80.237906 
L 312.327555 80.327836 
L 312.327555 80.344738 
L 312.438489 80.563685 
L 312.57161 80.650258 
L 312.57161 80.667097 
L 312.660358 80.817152 
L 312.682545 80.817152 
L 312.948787 80.903295 
L 312.948787 80.920071 
L 313.059722 81.153816 
L 313.192843 81.256186 
L 313.303777 81.372118 
L 313.370338 81.482943 
L 313.481272 81.578852 
L 313.547833 81.609172 
L 313.547833 81.675689 
L 313.658767 82.056083 
L 313.769702 82.077273 
L 313.769702 82.159998 
L 313.880636 82.40631 
L 313.947197 82.5157 
L 314.035944 82.659243 
L 314.058131 82.659243 
L 314.124692 82.721986 
L 314.124692 82.754848 
L 314.213439 82.851658 
L 314.235626 82.851658 
L 314.457495 82.955591 
L 314.568429 83.101057 
L 314.679364 83.186959 
L 314.679364 83.203288 
L 314.790298 83.524267 
L 314.879046 83.615735 
L 314.879046 83.63199 
L 314.98998 83.91884 
L 315.100915 84.022952 
L 315.211849 84.13382 
L 315.433718 84.235195 
L 315.522465 84.45829 
L 315.544652 84.45829 
L 315.6334 84.561548 
L 315.744334 84.831735 
L 315.855268 84.931349 
L 315.966203 85.05651 
L 316.032763 85.16203 
L 316.143698 85.286728 
L 316.188072 85.379145 
L 316.188072 85.395064 
L 316.299006 85.611456 
L 316.387753 85.668624 
L 316.387753 85.716211 
L 316.498688 85.871496 
L 316.587435 85.925275 
L 316.587435 85.972715 
L 316.69837 86.174721 
L 316.831491 86.26913 
L 316.831491 86.284882 
L 316.942425 86.435621 
L 317.031173 86.523499 
L 317.031173 86.539202 
L 317.142107 86.845935 
L 317.275229 86.94254 
L 317.386163 87.263206 
L 317.608032 87.361803 
L 317.718966 87.509995 
L 317.874274 87.617831 
L 317.985209 87.799569 
L 318.11833 87.876005 
L 318.11833 87.906898 
L 318.229264 88.0416 
L 318.273638 88.099978 
L 318.273638 88.146192 
L 318.384573 88.341881 
L 318.451133 88.427459 
L 318.451133 88.442809 
L 318.562068 88.683618 
L 318.628628 88.768814 
L 318.628628 88.784106 
L 318.739563 89.020513 
L 318.961431 89.085404 
L 318.961431 89.131083 
L 319.072366 89.384749 
L 319.1833 89.462443 
L 319.1833 89.492767 
L 319.294235 89.678019 
L 319.47173 89.767083 
L 319.47173 89.782188 
L 319.582664 89.92805 
L 319.737972 90.028417 
L 319.82672 90.215378 
L 319.848907 90.215378 
L 319.89328 90.215378 
L 319.89328 90.32046 
L 320.004215 90.510018 
L 320.070775 90.607988 
L 320.18171 90.78185 
L 320.314831 90.869269 
L 320.314831 90.884172 
L 320.425765 91.21734 
L 320.514513 91.225358 
L 320.514513 91.314389 
L 320.625447 91.690057 
L 320.692008 91.701391 
L 320.692008 91.78997 
L 320.802942 92.115901 
L 320.980437 92.172097 
L 320.980437 92.216155 
L 321.091372 92.386055 
L 321.157932 92.437709 
L 321.157932 92.496265 
L 321.268867 92.676592 
L 321.335427 92.687713 
L 321.335427 92.775271 
L 321.401988 92.852919 
L 321.446362 92.852919 
L 321.512922 92.922245 
L 321.512922 92.951356 
L 321.623857 93.206493 
L 321.646044 93.206493 
L 321.646044 93.308025 
L 321.756978 93.41735 
L 321.867913 93.432251 
L 321.867913 93.519029 
L 321.978847 93.728939 
L 322.023221 93.739835 
L 322.023221 93.826312 
L 322.134155 94.132355 
L 322.245089 94.222171 
L 322.245089 94.236511 
L 322.356024 94.458666 
L 322.400398 94.498007 
L 322.400398 94.569465 
L 322.489145 94.644473 
L 322.511332 94.644473 
L 322.711014 94.733589 
L 322.711014 94.747836 
L 322.821948 94.925647 
L 323.132565 95.035387 
L 323.243499 95.254748 
L 323.398807 95.360477 
L 323.487555 95.391853 
L 323.509742 95.391853 
L 323.620676 95.493939 
L 323.73161 95.810114 
L 323.775984 95.918836 
L 323.886918 96.023374 
L 323.931292 96.131796 
L 324.042227 96.221979 
L 324.064414 96.221979 
L 324.064414 96.31978 
L 324.175348 96.729942 
L 324.241909 96.806038 
L 324.241909 96.833818 
L 324.352843 96.992274 
L 324.485964 97.098647 
L 324.574712 97.159695 
L 324.596899 97.159695 
L 324.707833 97.241779 
L 324.707833 97.269396 
L 324.818767 97.385361 
L 324.863141 97.450591 
L 324.863141 97.491907 
L 324.974076 97.562527 
L 325.08501 97.633979 
L 325.08501 97.661454 
L 325.173757 97.817764 
L 325.195944 97.817764 
L 325.262505 97.865215 
L 325.262505 97.92 
L 325.351252 98.048359 
L 325.373439 98.048359 
L 325.395626 98.048359 
L 325.395626 98.157656 
L 325.506561 98.49971 
L 325.573121 98.550393 
L 325.573121 98.604758 
L 325.684056 98.863626 
L 325.750616 98.941144 
L 325.750616 98.96821 
L 325.839364 99.256517 
L 325.861551 99.256517 
L 325.950298 99.353125 
L 325.950298 99.366595 
L 326.061233 99.528736 
L 326.194354 99.634615 
L 326.305288 99.769246 
L 326.43841 99.874704 
L 326.527157 99.999174 
L 326.549344 99.999174 
L 326.660278 100.050867 
L 326.660278 100.104238 
L 326.771213 100.327141 
L 326.926521 100.418376 
L 326.926521 100.431661 
L 327.037455 100.484855 
L 327.192763 100.55878 
L 327.192763 100.585286 
L 327.303698 100.81399 
L 327.436819 100.913876 
L 327.547753 101.101994 
L 327.636501 101.195855 
L 327.636501 101.209006 
L 327.747435 101.488101 
L 327.947117 101.575441 
L 327.947117 101.588528 
L 328.058052 101.744798 
L 328.146799 101.828517 
L 328.146799 101.854606 
L 328.235547 102.049246 
L 328.257734 102.049246 
L 328.346481 102.158599 
L 328.346481 102.278382 
L 328.457416 102.278382 
L 328.657097 102.377265 
L 328.768032 102.535335 
L 328.92334 102.641394 
L 328.989901 102.897903 
L 329.034274 102.897903 
L 329.145209 102.976338 
L 329.145209 103.002042 
L 329.233956 103.145739 
L 329.256143 103.145739 
L 329.300517 103.244424 
L 329.389264 103.349208 
L 329.411451 103.349208 
L 329.500199 103.452643 
L 329.611133 104.066084 
L 329.722068 104.139278 
L 329.722068 104.164637 
L 329.833002 104.369092 
L 329.92175 104.45846 
L 329.92175 104.471091 
L 330.032684 104.931 
L 330.27674 105.012524 
L 330.27674 105.037615 
L 330.387674 105.264508 
L 330.432048 105.273072 
L 330.432048 105.373083 
L 330.542982 105.524138 
L 330.609543 105.603482 
L 330.609543 105.628396 
L 330.720477 105.766417 
L 330.742664 105.766417 
L 330.742664 105.865828 
L 330.853598 105.95374 
L 330.920159 105.995405 
L 330.920159 106.057368 
L 331.008907 106.453786 
L 331.031093 106.453786 
L 331.119841 106.552764 
L 331.208588 106.664227 
L 331.230775 106.664227 
L 331.34171 106.722024 
L 331.34171 106.771165 
L 331.452644 107.127142 
L 331.474831 107.127142 
L 331.474831 107.237176 
L 331.585765 107.578937 
L 331.630139 107.672236 
L 331.630139 107.684395 
L 331.741074 108.072655 
L 331.829821 108.157315 
L 331.829821 108.181495 
L 331.940755 108.50711 
L 331.962942 108.50711 
L 331.962942 108.615441 
L 332.073877 108.831349 
L 332.162624 108.939049 
L 332.273559 109.249503 
L 332.317932 109.340887 
L 332.317932 109.352813 
L 332.428867 109.423658 
L 332.495427 109.451215 
L 332.495427 109.534524 
L 332.606362 109.711986 
L 332.650736 109.767219 
L 332.650736 109.814654 
L 332.76167 110.02686 
L 332.806044 110.129119 
L 332.916978 110.44635 
L 333.005726 110.481055 
L 333.005726 110.551596 
L 333.11666 110.702972 
L 333.249781 110.776125 
L 333.249781 110.811265 
L 333.360716 111.027953 
L 333.427276 111.105536 
L 333.427276 111.12887 
L 333.538211 111.824534 
L 333.671332 111.884732 
L 333.671332 111.930986 
L 333.782266 112.056154 
L 333.82664 112.144264 
L 333.82664 112.155793 
L 333.915388 112.464441 
L 333.937575 112.464441 
L 334.004135 112.536445 
L 334.004135 112.570865 
L 334.11507 112.923517 
L 334.137256 112.923517 
L 334.137256 113.026282 
L 334.226004 113.217653 
L 334.248191 113.217653 
L 334.425686 113.301997 
L 334.425686 113.324731 
L 334.53662 113.685092 
L 334.669742 113.788417 
L 334.780676 114.539622 
L 334.913797 114.619221 
L 334.913797 114.641608 
L 335.002545 114.839687 
L 335.024732 114.839687 
L 335.113479 114.905048 
L 335.113479 114.949652 
L 335.224414 115.213509 
L 335.313161 115.267377 
L 335.313161 115.32288 
L 335.424095 115.658478 
L 335.490656 115.698404 
L 335.490656 115.764663 
L 335.60159 115.970515 
L 335.645964 116.076272 
L 335.756899 116.412725 
L 335.801272 116.506959 
L 335.801272 116.5179 
L 335.912207 116.732466 
L 335.934394 116.732466 
L 335.934394 116.841511 
L 336.023141 117.01161 
L 336.045328 117.01161 
L 336.222823 117.111814 
L 336.222823 117.12267 
L 336.289384 117.324445 
L 336.333757 117.324445 
L 336.378131 117.4067 
L 336.378131 117.428331 
L 336.489066 117.726227 
L 336.555626 117.825256 
L 336.555626 117.836017 
L 336.666561 118.11081 
L 336.733121 118.15574 
L 336.733121 118.220025 
L 336.821869 118.343788 
L 336.844056 118.343788 
L 336.932803 118.426927 
L 336.932803 118.448284 
L 337.043738 118.507581 
L 337.132485 118.569168 
L 337.132485 118.611782 
L 337.243419 118.819692 
L 337.332167 118.902182 
L 337.332167 118.923401 
L 337.443101 119.24664 
L 337.465288 119.24664 
L 337.465288 119.352252 
L 337.576223 119.442071 
L 337.642783 119.528143 
L 337.642783 119.549198 
L 337.753718 119.953495 
L 337.842465 120.024117 
L 337.842465 120.055509 
L 337.9534 120.373771 
L 338.01996 120.406663 
L 338.01996 120.479551 
L 338.130895 120.671472 
L 338.197455 120.724944 
L 338.197455 120.776803 
L 338.264016 120.864367 
L 338.30839 120.864367 
L 338.397137 120.913261 
L 338.397137 120.975319 
L 338.508072 121.151012 
L 338.574632 121.208468 
L 338.574632 121.25999 
L 338.66338 121.521474 
L 338.685567 121.521474 
L 338.796501 121.626924 
L 338.907435 121.876782 
L 338.951809 121.882576 
L 338.951809 121.984711 
L 339.062744 122.507641 
L 339.151491 122.615972 
L 339.240239 122.91289 
L 339.262425 122.91289 
L 339.306799 122.938715 
L 339.306799 123.019404 
L 339.417734 123.344806 
L 339.462107 123.400571 
L 339.462107 123.450729 
L 339.573042 123.769761 
L 339.661789 123.870622 
L 339.661789 123.880598 
L 339.772724 123.9634 
L 339.905845 124.070419 
L 340.016779 124.232313 
L 340.08334 124.26304 
L 340.08334 124.342357 
L 340.194274 124.552971 
L 340.283022 124.598788 
L 340.283022 124.658023 
L 340.393956 124.833595 
L 340.43833 124.833595 
L 340.43833 124.941824 
L 340.549264 125.238733 
L 340.593638 125.263618 
L 340.593638 125.34193 
L 340.704573 125.695664 
L 340.837694 125.76074 
L 340.837694 125.799658 
L 340.948628 126.073588 
L 340.993002 126.175633 
L 341.103936 126.486692 
L 341.170497 126.583656 
L 341.170497 126.593287 
L 341.281431 126.844947 
L 341.303618 126.844947 
L 341.303618 126.950486 
L 341.392366 127.296397 
L 341.414553 127.296397 
L 341.43674 127.296397 
L 341.43674 127.401359 
L 341.547674 127.726183 
L 341.592048 127.835525 
L 341.702982 128.092255 
L 341.725169 128.092255 
L 341.725169 128.196188 
L 341.836103 128.639637 
L 341.947038 128.74334 
L 342.057972 129.090169 
L 342.102346 129.150922 
L 342.102346 129.197562 
L 342.21328 129.523765 
L 342.21328 129.523765 
L 342.302028 129.584147 
L 342.302028 129.630527 
L 342.412962 129.751203 
L 342.479523 129.825282 
L 342.479523 129.862265 
L 342.590457 130.019344 
L 342.634831 130.070066 
L 342.634831 130.125351 
L 342.745765 130.346072 
L 342.834513 130.43322 
L 342.834513 130.451564 
L 342.945447 130.762564 
L 343.012008 130.798999 
L 343.012008 130.872005 
L 343.100755 131.040134 
L 343.122942 131.040134 
L 343.233877 131.126318 
L 343.233877 131.144494 
L 343.344811 131.529112 
L 343.344811 131.529112 
L 343.411372 131.587759 
L 343.411372 131.632926 
L 343.522306 132.001578 
L 343.56668 132.032891 
L 343.56668 132.104742 
L 343.677614 132.479941 
L 343.788549 132.559592 
L 343.788549 132.586361 
L 343.899483 132.941234 
L 344.054791 133.028697 
L 344.054791 133.046432 
L 344.165726 133.416555 
L 344.343221 133.516205 
L 344.343221 133.525015 
L 344.454155 133.725774 
L 344.498529 133.79136 
L 344.498529 133.835236 
L 344.609463 134.052524 
L 344.698211 134.14342 
L 344.698211 134.16089 
L 344.809145 134.263783 
L 344.831332 134.263783 
L 344.831332 134.368356 
L 344.942266 134.739979 
L 345.008827 134.817256 
L 345.008827 134.843228 
L 345.119761 134.935532 
L 345.252883 135.042388 
L 345.363817 135.289962 
L 345.430378 135.306393 
L 345.430378 135.400909 
L 345.541312 135.561505 
L 345.563499 135.561505 
L 345.563499 135.664256 
L 345.674433 135.849776 
L 345.740994 135.900118 
L 345.740994 135.959799 
L 345.851928 136.28882 
L 345.918489 136.338806 
L 345.918489 136.398146 
L 346.029423 136.69133 
L 346.095984 136.774723 
L 346.095984 136.800014 
L 346.206918 137.041066 
L 346.362227 137.147128 
L 346.473161 137.520474 
L 346.517535 137.582505 
L 346.517535 137.624195 
L 346.628469 137.779076 
L 346.650656 137.779076 
L 346.650656 137.887126 
L 346.76159 138.60301 
L 346.850338 138.671096 
L 346.850338 138.712206 
L 346.939085 139.046831 
L 346.961272 139.046831 
L 347.138767 139.126003 
L 347.138767 139.150515 
L 347.249702 139.529522 
L 347.294076 139.638503 
L 347.40501 139.950251 
L 347.471571 140.005397 
L 347.471571 140.053846 
L 347.538131 140.194686 
L 347.582505 140.194686 
L 347.649066 140.233501 
L 347.649066 140.297879 
L 347.76 140.518342 
L 347.870934 140.603506 
L 347.870934 140.627529 
L 347.981869 140.886706 
L 348.070616 140.976076 
L 348.070616 140.992009 
L 348.181551 141.782959 
L 348.181551 141.782959 
L 348.248111 141.849133 
L 348.248111 141.88852 
L 348.359046 142.51874 
L 348.514354 142.599341 
L 348.514354 142.622741 
L 348.603101 142.975276 
L 348.625288 142.975276 
L 348.669662 142.978251 
L 348.669662 143.079084 
L 348.780596 143.243907 
L 348.913718 143.320422 
L 348.913718 143.351306 
L 349.024652 143.523023 
L 349.091213 143.605788 
L 349.091213 143.628858 
L 349.202147 143.991272 
L 349.246521 143.994128 
L 349.246521 144.101164 
L 349.357455 144.339345 
L 349.379642 144.339345 
L 349.379642 144.445882 
L 349.490577 144.652473 
L 349.512763 144.652473 
L 349.512763 144.758553 
L 349.623698 145.024493 
L 349.712445 145.108087 
L 349.712445 145.130687 
L 349.82338 145.237316 
L 349.934314 145.330797 
L 349.934314 145.345812 
L 350.045249 145.611864 
L 350.045249 145.611864 
L 350.089622 145.611864 
L 350.089622 145.716492 
L 350.200557 146.684744 
L 350.200557 146.684744 
L 350.24493 146.684744 
L 350.24493 146.795302 
L 350.355865 147.419168 
L 350.378052 147.419168 
L 350.378052 147.528669 
L 350.488986 147.652711 
L 350.53336 147.720649 
L 350.53336 147.757009 
L 350.644294 148.134084 
L 350.733042 148.235208 
L 350.733042 148.24243 
L 350.821789 148.803319 
L 350.843976 148.803319 
L 350.88835 148.870116 
L 350.88835 148.91307 
L 350.999284 149.262384 
L 351.021471 149.262384 
L 351.021471 149.369147 
L 351.132406 149.779775 
L 351.198966 149.883145 
L 351.198966 149.890207 
L 351.309901 150.367847 
L 351.354274 150.475158 
L 351.465209 150.641901 
L 351.531769 150.729943 
L 351.531769 150.750877 
L 351.642704 150.944641 
L 351.709264 151.025298 
L 351.709264 151.053086 
L 351.820199 151.280473 
L 351.864573 151.351719 
L 351.864573 151.38629 
L 351.931133 151.646881 
L 351.975507 151.646881 
L 352.086441 151.737522 
L 352.086441 151.751274 
L 352.197376 152.05822 
L 352.286123 152.132552 
L 352.286123 152.166729 
L 352.397058 152.689074 
L 352.463618 152.774261 
L 352.463618 152.794588 
L 352.574553 153.285228 
L 352.59674 153.285228 
L 352.59674 153.392814 
L 352.707674 153.631848 
L 352.729861 153.631848 
L 352.729861 153.738904 
L 352.840795 154.481302 
L 352.862982 154.481302 
L 352.862982 154.587132 
L 352.973917 154.795386 
L 353.040477 154.825135 
L 353.040477 154.904118 
L 353.151412 155.17024 
L 353.173598 155.17024 
L 353.173598 155.275009 
L 353.284533 155.539556 
L 353.351093 155.647008 
L 353.462028 155.780183 
L 353.484215 155.780183 
L 353.484215 155.890491 
L 353.595149 156.236274 
L 353.639523 156.237833 
L 353.639523 156.340978 
L 353.750457 156.538286 
L 353.750457 156.538286 
L 353.839205 156.567023 
L 353.839205 156.644007 
L 353.950139 157.221321 
L 354.08326 157.304887 
L 354.08326 157.330286 
L 354.172008 157.71243 
L 354.194195 157.71243 
L 354.327316 157.820413 
L 354.416064 158.174468 
L 354.43825 158.174468 
L 354.482624 158.188377 
L 354.482624 158.282337 
L 354.593559 158.677406 
L 354.637932 158.765811 
L 354.637932 158.784457 
L 354.748867 158.992135 
L 354.748867 158.992135 
L 354.793241 158.992135 
L 354.793241 159.097362 
L 354.904175 159.525505 
L 354.904175 159.525505 
L 355.037296 159.634866 
L 355.148231 159.74645 
L 355.192604 159.833348 
L 355.192604 159.851694 
L 355.303539 160.425139 
L 355.370099 160.524412 
L 355.370099 160.530467 
L 355.481034 160.965788 
L 355.569781 161.005206 
L 355.569781 161.071305 
L 355.680716 161.335602 
L 355.769463 161.392643 
L 355.769463 161.446407 
L 355.880398 161.679268 
L 355.991332 161.772621 
L 355.991332 161.784502 
L 356.102266 162.122413 
L 356.124453 162.122413 
L 356.124453 162.228706 
L 356.213201 162.575959 
L 356.235388 162.575959 
L 356.279761 162.670779 
L 356.279761 162.682502 
L 356.390696 163.015551 
L 356.457256 163.052383 
L 356.457256 163.122281 
L 356.568191 163.325369 
L 356.679125 163.357972 
L 356.679125 163.433316 
L 356.79006 163.727567 
L 356.834433 163.837903 
L 356.945368 164.530246 
L 356.989742 164.536742 
L 356.989742 164.63924 
L 357.100676 165.007027 
L 357.122863 165.007027 
L 357.122863 165.114457 
L 357.233797 165.670209 
L 357.278171 165.698918 
L 357.278171 165.777286 
L 357.389105 165.937825 
L 357.50004 165.957262 
L 357.50004 166.046426 
L 357.610974 166.339296 
L 357.655348 166.384271 
L 357.655348 166.445183 
L 357.766282 166.967114 
L 357.832843 167.012208 
L 357.832843 167.078027 
L 357.943777 167.676262 
L 358.010338 167.758765 
L 358.010338 167.78589 
L 358.121272 168.124345 
L 358.21002 168.185141 
L 358.21002 168.233629 
L 358.320954 168.692615 
L 358.343141 168.692615 
L 358.343141 168.799492 
L 358.454076 168.96739 
L 358.56501 169.043576 
L 358.56501 169.075471 
L 358.675944 169.580792 
L 358.786879 169.650804 
L 358.786879 169.687661 
L 358.809066 169.75824 
L 358.897813 169.75824 
L 358.942187 169.811141 
L 358.942187 169.868885 
L 359.053121 170.11708 
L 359.097495 170.159208 
L 359.097495 170.227067 
L 359.208429 170.484082 
L 359.27499 170.531431 
L 359.27499 170.593697 
L 359.385924 171.122224 
L 359.541233 171.180301 
L 359.541233 171.231658 
L 359.652167 171.376674 
L 359.674354 171.376674 
L 359.674354 171.484121 
L 359.785288 172.065566 
L 359.851849 172.14694 
L 359.851849 172.172235 
L 359.962783 172.847376 
L 360.051531 172.937768 
L 360.051531 172.957756 
L 360.162465 173.495644 
L 360.206839 173.535338 
L 360.206839 173.604614 
L 360.317773 174.053377 
L 360.406521 174.146695 
L 360.406521 174.161401 
L 360.517455 174.557224 
L 360.517455 174.557224 
L 360.584016 174.557224 
L 360.584016 174.664268 
L 360.650577 174.984137 
L 360.69495 174.984137 
L 360.761511 175.037273 
L 360.761511 175.095227 
L 360.872445 175.824391 
L 360.872445 175.824391 
L 360.894632 175.824391 
L 360.894632 175.934064 
L 361.005567 176.256499 
L 361.005567 176.256499 
L 361.072127 176.350948 
L 361.072127 176.365141 
L 361.183062 176.863489 
L 361.183062 176.863489 
L 361.249622 176.891466 
L 361.249622 176.971146 
L 361.33837 177.478465 
L 361.360557 177.478465 
L 361.427117 177.543043 
L 361.427117 177.589432 
L 361.538052 177.930229 
L 361.538052 177.930229 
L 361.604612 178.035694 
L 361.604612 178.040296 
L 361.715547 178.414945 
L 361.715547 178.414945 
L 361.782107 178.514926 
L 361.782107 178.524057 
L 361.893042 179.19425 
L 361.893042 179.19425 
L 362.003976 179.256116 
L 362.003976 179.301205 
L 362.114911 179.663102 
L 362.114911 179.663102 
L 362.181471 179.725063 
L 362.181471 179.769797 
L 362.292406 180.190846 
L 362.292406 180.190846 
L 362.40334 180.286857 
L 362.40334 180.300153 
L 362.514274 180.827109 
L 362.514274 180.827109 
L 362.558648 180.883753 
L 362.558648 180.936396 
L 362.647396 181.226745 
L 362.669583 181.226745 
L 362.691769 181.226745 
L 362.691769 181.33573 
L 362.802704 182.120386 
L 362.802704 182.120386 
L 362.958012 182.224627 
L 362.958012 182.228917 
L 363.068946 182.516719 
L 363.068946 182.516719 
L 363.135507 182.579622 
L 363.135507 182.626509 
L 363.246441 182.869743 
L 363.246441 182.869743 
L 363.268628 182.869743 
L 363.268628 182.979948 
L 363.379563 183.549585 
L 363.379563 183.549585 
L 363.490497 183.639331 
L 363.490497 183.660263 
L 363.601431 184.056948 
L 363.601431 184.056948 
L 363.667992 184.101372 
L 363.667992 184.167794 
L 363.778926 184.449429 
L 363.778926 184.449429 
L 363.845487 184.464608 
L 363.845487 184.559452 
L 363.956421 185.17833 
L 363.956421 185.17833 
L 364.045169 185.269892 
L 364.045169 185.286171 
L 364.156103 185.852758 
L 364.156103 185.852758 
L 364.17829 185.852758 
L 364.17829 185.961469 
L 364.289225 186.228993 
L 364.289225 186.228993 
L 364.355785 186.280234 
L 364.355785 186.336199 
L 364.46672 186.483122 
L 364.46672 186.483122 
L 364.555467 186.584246 
L 364.555467 186.592199 
L 364.666402 186.852361 
L 364.666402 186.852361 
L 364.799523 186.947954 
L 364.799523 186.959802 
L 364.910457 187.35623 
L 364.910457 187.35623 
L 364.954831 187.465084 
L 365.065765 187.947116 
L 365.065765 187.947116 
L 365.1767 188.01731 
L 365.1767 188.05605 
L 365.287634 188.551963 
L 365.287634 188.551963 
L 365.354195 188.60387 
L 365.354195 188.661369 
L 365.465129 189.174527 
L 365.465129 189.174527 
L 365.509503 189.188772 
L 365.509503 189.283586 
L 365.620437 189.493451 
L 365.620437 189.493451 
L 365.709185 189.532079 
L 365.709185 189.603687 
L 365.797932 189.804643 
L 365.820119 189.804643 
L 365.88668 189.866441 
L 365.88668 189.915141 
L 365.997614 190.471805 
L 365.997614 190.471805 
L 366.019801 190.471805 
L 366.019801 190.579227 
L 366.108549 190.996011 
L 366.130736 190.996011 
L 366.24167 191.106622 
L 366.352604 191.348964 
L 366.352604 191.348964 
L 366.396978 191.377084 
L 366.396978 191.457242 
L 366.507913 192.019534 
L 366.507913 192.019534 
L 366.574473 192.103781 
L 366.574473 192.128965 
L 366.685408 192.787357 
L 366.685408 192.787357 
L 366.796342 192.892896 
L 366.796342 192.896443 
L 366.907276 193.299454 
L 366.907276 193.299454 
L 366.973837 193.406157 
L 366.973837 193.40967 
L 367.084771 193.57803 
L 367.084771 193.57803 
L 367.151332 193.631676 
L 367.151332 193.687607 
L 367.262266 194.512728 
L 367.262266 194.512728 
L 367.284453 194.512728 
L 367.284453 194.622766 
L 367.395388 194.817697 
L 367.395388 194.817697 
L 367.439761 194.898531 
L 367.439761 194.92586 
L 367.550696 195.241861 
L 367.550696 195.241861 
L 367.59507 195.257579 
L 367.59507 195.352515 
L 367.706004 195.927833 
L 367.706004 195.927833 
L 367.794751 196.034458 
L 367.794751 196.037802 
L 367.905686 196.555825 
L 367.905686 196.555825 
L 367.972247 196.626004 
L 367.972247 196.665677 
L 368.083181 197.39294 
L 368.083181 197.39294 
L 368.149742 197.478184 
L 368.149742 197.500962 
L 368.260676 197.891429 
L 368.260676 197.891429 
L 368.327237 197.933861 
L 368.327237 198.001567 
L 368.438171 198.570047 
L 368.438171 198.570047 
L 368.504732 198.662763 
L 368.504732 198.678668 
L 368.615666 199.050438 
L 368.615666 199.050438 
L 368.682227 199.161126 
L 368.793161 199.813096 
L 368.793161 199.813096 
L 368.837535 199.92353 
L 368.948469 200.233521 
L 368.948469 200.233521 
L 368.970656 200.233521 
L 368.970656 200.344494 
L 369.08159 200.523066 
L 369.08159 200.523066 
L 369.125964 200.536912 
L 369.125964 200.631899 
L 369.236899 201.046671 
L 369.236899 201.046671 
L 369.259085 201.046671 
L 369.259085 201.155868 
L 369.37002 201.614265 
L 369.37002 201.614265 
L 369.414394 201.717721 
L 369.414394 201.723714 
L 369.525328 202.206466 
L 369.525328 202.206466 
L 369.591889 202.277487 
L 369.591889 202.315998 
L 369.702823 202.830975 
L 369.702823 202.830975 
L 369.769384 202.883465 
L 369.769384 202.941988 
L 369.880318 203.698693 
L 369.880318 203.698693 
L 369.946879 203.735774 
L 369.946879 203.807692 
L 370.057813 204.278559 
L 370.057813 204.278559 
L 370.102187 204.299692 
L 370.102187 204.387846 
L 370.213121 204.56229 
L 370.213121 204.56229 
L 370.279682 204.581627 
L 370.279682 204.672074 
L 370.390616 205.069913 
L 370.390616 205.069913 
L 370.457177 205.080577 
L 370.457177 205.178484 
L 370.568111 205.652316 
L 370.568111 205.652316 
L 370.656859 205.735726 
L 370.656859 205.763344 
L 370.767793 206.520291 
L 370.767793 206.520291 
L 370.878728 206.589471 
L 370.878728 206.630173 
L 370.989662 206.995359 
L 370.989662 206.995359 
L 371.034036 207.036667 
L 371.034036 207.103853 
L 371.14497 207.595674 
L 371.14497 207.595674 
L 371.211531 207.701021 
L 371.211531 207.706325 
L 371.322465 207.961067 
L 371.322465 207.961067 
L 371.4334 208.042701 
L 371.4334 208.071648 
L 371.544334 208.745393 
L 371.544334 208.745393 
L 371.588708 208.844664 
L 371.588708 208.855018 
L 371.699642 209.376991 
L 371.699642 209.376991 
L 371.721829 209.376991 
L 371.721829 209.486942 
L 371.832763 210.039672 
L 371.832763 210.039672 
L 371.899324 210.09654 
L 371.899324 210.149454 
L 372.010258 210.532758 
L 372.010258 210.532758 
L 372.076819 210.633184 
L 372.076819 210.643151 
L 372.187753 210.813518 
L 372.187753 210.813518 
L 372.232127 210.819102 
L 372.232127 210.923201 
L 372.343062 211.245046 
L 372.343062 211.245046 
L 372.409622 211.322351 
L 372.409622 211.354244 
L 372.520557 211.90366 
L 372.520557 211.90366 
L 372.56493 211.996187 
L 372.56493 212.013115 
L 372.675865 212.14174 
L 372.675865 212.14174 
L 372.720239 212.216904 
L 372.720239 212.250581 
L 372.831173 212.905246 
L 372.831173 212.905246 
L 372.897734 212.998496 
L 372.897734 213.015053 
L 373.008668 213.342767 
L 373.008668 213.342767 
L 373.053042 213.380723 
L 373.053042 213.453376 
L 373.163976 213.903092 
L 373.163976 213.903092 
L 373.230537 214.008033 
L 373.230537 214.012659 
L 373.341471 214.442837 
L 373.341471 214.442837 
L 373.385845 214.482085 
L 373.385845 214.552976 
L 373.496779 215.07048 
L 373.496779 215.07048 
L 373.56334 215.140995 
L 373.56334 215.181567 
L 373.674274 215.680437 
L 373.674274 215.680437 
L 373.785209 215.788146 
L 373.785209 215.790368 
L 373.896143 216.260132 
L 373.896143 216.260132 
L 373.984891 216.317805 
L 373.984891 216.370455 
L 374.095825 216.870648 
L 374.095825 216.870648 
L 374.162386 216.981332 
L 374.27332 217.388752 
L 374.27332 217.388752 
L 374.317694 217.401705 
L 374.317694 217.497944 
L 374.428628 217.819835 
L 374.428628 217.819835 
L 374.517376 217.930153 
L 374.62831 218.212896 
L 374.62831 218.212896 
L 374.717058 218.31791 
L 374.717058 218.3221 
L 374.805805 218.458233 
L 374.827992 218.458233 
L 374.872366 218.502077 
L 374.872366 218.568758 
L 374.961113 218.923379 
L 374.9833 218.923379 
L 375.072048 218.974952 
L 375.072048 219.03265 
L 375.160795 219.125118 
L 375.182982 219.125118 
L 375.205169 219.125118 
L 375.205169 219.235902 
L 375.316103 219.576473 
L 375.316103 219.576473 
L 375.382664 219.657585 
L 375.382664 219.685972 
L 375.493598 220.030757 
L 375.493598 220.030757 
L 375.604533 220.120786 
L 375.604533 220.140838 
L 375.715467 220.58888 
L 375.715467 220.58888 
L 375.759841 220.662081 
L 375.759841 220.699683 
L 375.870775 220.900166 
L 375.870775 220.900166 
L 375.915149 221.006176 
L 375.915149 221.010103 
L 376.026083 221.26554 
L 376.026083 221.26554 
L 376.114831 221.288453 
L 376.114831 221.376082 
L 376.225765 221.839254 
L 376.225765 221.839254 
L 376.270139 221.921689 
L 376.270139 221.948559 
L 376.381074 222.285452 
L 376.381074 222.285452 
L 376.40326 222.285452 
L 376.40326 222.395671 
L 376.514195 222.6232 
L 376.514195 222.6232 
L 376.536382 222.6232 
L 376.536382 222.732504 
L 376.647316 223.15963 
L 376.647316 223.15963 
L 376.780437 223.264207 
L 376.780437 223.269778 
L 376.891372 223.97851 
L 376.891372 223.97851 
L 376.957932 224.047129 
L 376.957932 224.089011 
L 377.068867 224.206872 
L 377.068867 224.206872 
L 377.157614 224.249337 
L 377.157614 224.316324 
L 377.268549 224.676093 
L 377.268549 224.676093 
L 377.290736 224.676093 
L 377.290736 224.787088 
L 377.40167 225.133608 
L 377.40167 225.133608 
L 377.446044 225.219945 
L 377.446044 225.244694 
L 377.556978 225.875095 
L 377.556978 225.875095 
L 377.645726 225.9259 
L 377.645726 225.984918 
L 377.75666 226.312048 
L 377.75666 226.312048 
L 377.801034 226.375162 
L 377.801034 226.421499 
L 377.911968 226.782211 
L 377.911968 226.782211 
L 377.978529 226.877947 
L 377.978529 226.8932 
L 378.089463 227.431922 
L 378.089463 227.431922 
L 378.133837 227.438071 
L 378.133837 227.541526 
L 378.244771 227.9405 
L 378.244771 227.9405 
L 378.289145 227.9405 
L 378.289145 228.050837 
L 378.40008 228.675366 
L 378.40008 228.675366 
L 378.422266 228.675366 
L 378.422266 228.785247 
L 378.533201 228.960247 
L 378.533201 228.960247 
L 378.555388 228.960247 
L 378.555388 229.070892 
L 378.577575 229.210959 
L 378.666322 229.210959 
L 378.75507 229.301449 
L 378.75507 229.320535 
L 378.843817 229.853488 
L 378.866004 229.853488 
L 378.976938 229.954155 
L 378.976938 229.963534 
L 379.065686 230.376036 
L 379.087873 230.376036 
L 379.132247 230.452555 
L 379.132247 230.486479 
L 379.243181 230.944844 
L 379.243181 230.944844 
L 379.354115 231.002804 
L 379.354115 231.054438 
L 379.46505 231.69249 
L 379.46505 231.69249 
L 379.509423 231.717086 
L 379.509423 231.80345 
L 379.620358 232.17469 
L 379.620358 232.17469 
L 379.686918 232.274569 
L 379.686918 232.284844 
L 379.797853 232.515636 
L 379.797853 232.515636 
L 379.864414 232.618875 
L 379.864414 232.626144 
L 379.975348 232.828583 
L 379.975348 232.828583 
L 380.064095 232.889682 
L 380.064095 232.938695 
L 380.17503 233.241357 
L 380.17503 233.241357 
L 380.285964 233.347251 
L 380.285964 233.351522 
L 380.396899 233.64565 
L 380.396899 233.64565 
L 380.441272 233.711102 
L 380.441272 233.756173 
L 380.552207 234.070528 
L 380.552207 234.070528 
L 380.618767 234.176053 
L 380.618767 234.181616 
L 380.729702 234.55675 
L 380.729702 234.55675 
L 380.751889 234.55675 
L 380.751889 234.666659 
L 380.862823 234.997585 
L 380.862823 234.997585 
L 380.951571 235.069065 
L 380.951571 235.108363 
L 381.062505 235.317559 
L 381.062505 235.317559 
L 381.151252 235.418286 
L 381.151252 235.427678 
L 381.262187 235.96263 
L 381.262187 235.96263 
L 381.395308 236.051573 
L 381.395308 236.072648 
L 381.506243 236.389336 
L 381.506243 236.389336 
L 381.528429 236.389336 
L 381.528429 236.500055 
L 381.639364 236.828136 
L 381.639364 236.828136 
L 381.683738 236.924908 
L 381.683738 236.939034 
L 381.794672 237.209303 
L 381.794672 237.209303 
L 381.839046 237.218494 
L 381.839046 237.320201 
L 381.94998 237.709228 
L 381.94998 237.709228 
L 382.016541 237.781157 
L 382.016541 237.819954 
L 382.127475 238.390528 
L 382.127475 238.390528 
L 382.216223 238.501589 
L 382.327157 239.094236 
L 382.327157 239.094236 
L 382.393718 239.202712 
L 382.393718 239.205113 
L 382.504652 239.655215 
L 382.504652 239.655215 
L 382.549026 239.723911 
L 382.549026 239.765239 
L 382.65996 240.109646 
L 382.65996 240.109646 
L 382.704334 240.205317 
L 382.704334 240.220449 
L 382.815268 240.680613 
L 382.815268 240.680613 
L 382.881829 240.763166 
L 382.881829 240.790621 
L 382.992763 241.598122 
L 382.992763 241.598122 
L 383.059324 241.691611 
L 383.059324 241.70829 
L 383.170258 242.084795 
L 383.170258 242.084795 
L 383.192445 242.084795 
L 383.192445 242.195563 
L 383.30338 242.718399 
L 383.30338 242.718399 
L 383.36994 242.728945 
L 383.36994 242.828904 
L 383.480875 243.145247 
L 383.480875 243.145247 
L 383.636183 243.255725 
L 383.747117 243.527666 
L 383.747117 243.527666 
L 383.769304 243.527666 
L 383.769304 243.638651 
L 383.880239 244.082748 
L 383.880239 244.082748 
L 383.946799 244.173911 
L 383.946799 244.193422 
L 384.057734 244.46299 
L 384.057734 244.46299 
L 384.124294 244.511346 
L 384.124294 244.573248 
L 384.235229 245.023651 
L 384.235229 245.023651 
L 384.323976 245.088739 
L 384.323976 245.134552 
L 384.434911 245.525462 
L 384.434911 245.525462 
L 384.523658 245.617782 
L 384.523658 245.636382 
L 384.634592 246.004191 
L 384.634592 246.004191 
L 384.767714 246.104907 
L 384.767714 246.114537 
L 384.878648 246.620145 
L 384.878648 246.620145 
L 384.945209 246.620746 
L 384.945209 246.730353 
L 385.056143 247.140297 
L 385.056143 247.140297 
L 385.122704 247.180443 
L 385.122704 247.250948 
L 385.233638 247.876586 
L 385.233638 247.876586 
L 385.322386 247.939669 
L 385.322386 247.987597 
L 385.43332 248.224385 
L 385.43332 248.224385 
L 385.455507 248.224385 
L 385.455507 248.335288 
L 385.566441 248.505282 
L 385.566441 248.505282 
L 385.588628 248.505282 
L 385.588628 248.615977 
L 385.699563 248.991659 
L 385.699563 248.991659 
L 385.72175 248.991659 
L 385.72175 249.102235 
L 385.832684 249.658666 
L 385.832684 249.658666 
L 385.877058 249.714349 
L 385.877058 249.769582 
L 385.987992 250.129985 
L 385.987992 250.129985 
L 386.032366 250.178854 
L 386.032366 250.240691 
L 386.1433 250.585843 
L 386.1433 250.585843 
L 386.165487 250.585843 
L 386.165487 250.696918 
L 386.276421 251.151237 
L 386.276421 251.151237 
L 386.320795 251.154697 
L 386.320795 251.261908 
L 386.43173 251.359575 
L 386.43173 251.359575 
L 386.49829 251.444018 
L 386.49829 251.47037 
L 386.609225 251.968208 
L 386.609225 251.968208 
L 386.675785 251.995177 
L 386.675785 252.078822 
L 386.78672 252.511755 
L 386.78672 252.511755 
L 386.875467 252.613324 
L 386.875467 252.622504 
L 386.986402 252.828885 
L 386.986402 252.828885 
L 387.052962 252.898054 
L 387.052962 252.939647 
L 387.163897 253.245941 
L 387.163897 253.245941 
L 387.274831 253.349098 
L 387.274831 253.356536 
L 387.385765 253.667376 
L 387.385765 253.667376 
L 387.452326 253.737184 
L 387.452326 253.778194 
L 387.56326 254.080286 
L 387.56326 254.080286 
L 387.674195 254.138146 
L 387.674195 254.190765 
L 387.785129 254.614294 
L 387.785129 254.614294 
L 387.85169 254.647532 
L 387.85169 254.725237 
L 387.962624 254.986092 
L 387.962624 254.986092 
L 388.051372 255.082117 
L 388.051372 255.096718 
L 388.162306 255.357066 
L 388.162306 255.357066 
L 388.273241 255.460447 
L 388.273241 255.467981 
L 388.384175 255.716893 
L 388.384175 255.716893 
L 388.450736 255.822259 
L 388.450736 255.827659 
L 388.56167 256.324172 
L 388.56167 256.324172 
L 388.672604 256.409671 
L 388.672604 256.434719 
L 388.783539 256.664702 
L 388.783539 256.664702 
L 388.850099 256.687238 
L 388.850099 256.775757 
L 388.961034 256.914739 
L 388.961034 256.914739 
L 389.094155 257.021536 
L 389.094155 257.025393 
L 389.205089 257.495523 
L 389.205089 257.495523 
L 389.227276 257.495523 
L 389.227276 257.606289 
L 389.338211 258.019675 
L 389.338211 258.019675 
L 389.382584 258.049678 
L 389.382584 258.130318 
L 389.493519 258.666714 
L 389.493519 258.666714 
L 389.537893 258.676064 
L 389.537893 258.77739 
L 389.648827 259.044626 
L 389.648827 259.044626 
L 389.715388 259.136741 
L 389.715388 259.155589 
L 389.826322 259.59617 
L 389.826322 259.59617 
L 389.892883 259.665667 
L 389.892883 259.707112 
L 390.003817 259.942034 
L 390.003817 259.942034 
L 390.092565 260.042133 
L 390.092565 260.052899 
L 390.203499 260.677904 
L 390.203499 260.677904 
L 390.27006 260.744889 
L 390.27006 260.788835 
L 390.380994 260.995221 
L 390.380994 260.995221 
L 390.425368 261.087085 
L 390.425368 261.106033 
L 390.536302 261.35816 
L 390.536302 261.35816 
L 390.580676 261.395712 
L 390.580676 261.468777 
L 390.669423 261.724634 
L 390.69161 261.724634 
L 390.758171 261.752193 
L 390.758171 261.835622 
L 390.869105 262.521556 
L 390.869105 262.521556 
L 391.0466 262.627757 
L 391.0466 262.632305 
L 391.157535 263.115673 
L 391.157535 263.115673 
L 391.246282 263.185253 
L 391.246282 263.226592 
L 391.357217 263.629357 
L 391.357217 263.629357 
L 391.423777 263.707816 
L 391.423777 263.740007 
L 391.534712 263.999336 
L 391.534712 263.999336 
L 391.579085 264.030562 
L 391.579085 264.110443 
L 391.69002 264.617703 
L 391.69002 264.617703 
L 391.734394 264.710463 
L 391.734394 264.728802 
L 391.845328 265.207919 
L 391.845328 265.207919 
L 391.889702 265.237333 
L 391.889702 265.319021 
L 392.000636 265.767232 
L 392.000636 265.767232 
L 392.022823 265.767232 
L 392.022823 265.878105 
L 392.133757 266.297226 
L 392.133757 266.297226 
L 392.155944 266.297226 
L 392.155944 266.408225 
L 392.266879 266.720583 
L 392.266879 266.720583 
L 392.311252 266.759431 
L 392.311252 266.83154 
L 392.422187 267.089921 
L 392.422187 267.089921 
L 392.466561 267.155719 
L 392.466561 267.200839 
L 392.577495 267.546283 
L 392.577495 267.546283 
L 392.621869 267.611344 
L 392.621869 267.65702 
L 392.732803 268.162126 
L 392.732803 268.162126 
L 392.799364 268.259488 
L 392.799364 268.272946 
L 392.910298 268.807856 
L 392.910298 268.807856 
L 393.065606 268.905823 
L 393.065606 268.918831 
L 393.176541 269.24611 
L 393.176541 269.24611 
L 393.309662 269.339073 
L 393.309662 269.356864 
L 393.420596 269.621741 
L 393.420596 269.621741 
L 393.487157 269.72768 
L 393.487157 269.73266 
L 393.598091 270.021491 
L 393.598091 270.021491 
L 393.709026 270.066847 
L 393.709026 270.132372 
L 393.81996 270.222707 
L 393.81996 270.222707 
L 393.842147 270.222707 
L 393.842147 270.333482 
L 393.953082 270.803859 
L 393.953082 270.803859 
L 393.997455 270.903423 
L 393.997455 270.914757 
L 394.10839 271.064205 
L 394.10839 271.064205 
L 394.17495 271.170417 
L 394.17495 271.175015 
L 394.285885 271.34105 
L 394.285885 271.34105 
L 394.352445 271.449125 
L 394.352445 271.452034 
L 394.46338 271.830829 
L 394.46338 271.830829 
L 394.52994 271.922362 
L 394.52994 271.941863 
L 394.640875 272.241672 
L 394.640875 272.241672 
L 394.685249 272.263739 
L 394.685249 272.352688 
L 394.796183 272.564291 
L 394.796183 272.564291 
L 394.862744 272.620833 
L 394.862744 272.675143 
L 394.973678 273.094426 
L 394.973678 273.094426 
L 395.084612 273.204316 
L 395.084612 273.205484 
L 395.17336 273.634803 
L 395.195547 273.634803 
L 395.284294 273.742448 
L 395.284294 273.745841 
L 395.395229 274.033823 
L 395.395229 274.033823 
L 395.483976 274.120038 
L 395.483976 274.144889 
L 395.594911 274.318908 
L 395.594911 274.318908 
L 395.661471 274.365782 
L 395.661471 274.429883 
L 395.772406 274.760096 
L 395.772406 274.760096 
L 395.838966 274.86751 
L 395.838966 274.871204 
L 395.949901 275.126853 
L 395.949901 275.126853 
L 396.016461 275.201067 
L 396.016461 275.237712 
L 396.127396 275.517325 
L 396.127396 275.517325 
L 396.260517 275.626944 
L 396.260517 275.628201 
L 396.371451 275.825761 
L 396.371451 275.825761 
L 396.415825 275.917972 
L 396.415825 275.936714 
L 396.526759 276.169656 
L 396.526759 276.169656 
L 396.637694 276.199748 
L 396.637694 276.280682 
L 396.748628 276.624684 
L 396.748628 276.624684 
L 396.837376 276.673654 
L 396.837376 276.735756 
L 396.94831 276.972675 
L 396.94831 276.972675 
L 396.992684 277.043481 
L 396.992684 277.083755 
L 397.103618 277.219445 
L 397.103618 277.219445 
L 397.125805 277.219445 
L 397.125805 277.330431 
L 397.23674 277.568568 
L 397.23674 277.568568 
L 397.3033 277.602831 
L 397.3033 277.679628 
L 397.414235 277.865525 
L 397.414235 277.865525 
L 397.525169 277.959927 
L 397.525169 277.976492 
L 397.636103 278.213587 
L 397.636103 278.213587 
L 397.813598 278.320077 
L 397.813598 278.324693 
L 397.924533 278.726057 
L 397.924533 278.726057 
L 397.991093 278.72617 
L 397.991093 278.837114 
L 398.102028 279.021491 
L 398.102028 279.021491 
L 398.190775 279.085923 
L 398.190775 279.132566 
L 398.30171 279.492784 
L 398.30171 279.492784 
L 398.390457 279.584299 
L 398.390457 279.603849 
L 398.501392 279.744803 
L 398.501392 279.744803 
L 398.545765 279.802382 
L 398.545765 279.85588 
L 398.634513 280.030018 
L 398.6567 280.030018 
L 398.72326 280.058321 
L 398.72326 280.141033 
L 398.834195 280.373247 
L 398.834195 280.373247 
L 398.878569 280.410137 
L 398.878569 280.484258 
L 398.989503 280.6803 
L 398.989503 280.6803 
L 399.07825 280.718828 
L 399.07825 280.791409 
L 399.189185 281.096832 
L 399.189185 281.096832 
L 399.277932 281.153182 
L 399.277932 281.207788 
L 399.388867 281.389203 
L 399.388867 281.389203 
L 399.433241 281.4814 
L 399.433241 281.500165 
L 399.544175 281.801007 
L 399.544175 281.801007 
L 399.632922 281.896265 
L 399.632922 281.912019 
L 399.743857 282.170633 
L 399.743857 282.170633 
L 399.788231 282.204189 
L 399.788231 282.281639 
L 399.899165 282.507246 
L 399.899165 282.507246 
L 400.010099 282.600841 
L 400.010099 282.618307 
L 400.121034 282.696952 
L 400.121034 282.696952 
L 400.187594 282.7252 
L 400.187594 282.807939 
L 400.298529 283.041741 
L 400.298529 283.041741 
L 400.387276 283.136375 
L 400.387276 283.152791 
L 400.476024 283.331803 
L 400.498211 283.331803 
L 400.631332 283.434599 
L 400.631332 283.442817 
L 400.742266 283.986554 
L 400.742266 283.986554 
L 400.853201 284.055893 
L 400.853201 284.097636 
L 400.964135 284.392553 
L 400.964135 284.392553 
L 401.008509 284.432901 
L 401.008509 284.503603 
L 401.119443 284.779996 
L 401.119443 284.779996 
L 401.186004 284.870574 
L 401.186004 284.891086 
L 401.274751 285.095539 
L 401.296938 285.095539 
L 401.363499 285.147466 
L 401.363499 285.206646 
L 401.474433 285.387476 
L 401.474433 285.387476 
L 401.540994 285.39655 
L 401.540994 285.498586 
L 401.651928 285.718193 
L 401.651928 285.718193 
L 401.696302 285.76626 
L 401.696302 285.829282 
L 401.807237 285.886515 
L 401.807237 285.886515 
L 401.873797 285.909688 
L 401.873797 285.997613 
L 401.984732 286.28291 
L 401.984732 286.28291 
L 402.14004 286.38269 
L 402.14004 286.393997 
L 402.250974 286.56526 
L 402.250974 286.56526 
L 402.317535 286.600534 
L 402.317535 286.676296 
L 402.428469 286.981909 
L 402.428469 286.981909 
L 402.517217 287.069589 
L 402.517217 287.092959 
L 402.628151 287.274374 
L 402.628151 287.274374 
L 402.694712 287.373916 
L 402.694712 287.385455 
L 402.805646 287.504361 
L 402.805646 287.504361 
L 402.872207 287.598599 
L 402.872207 287.615463 
L 402.983141 287.721639 
L 402.983141 287.721639 
L 403.049702 287.774458 
L 403.049702 287.832722 
L 403.160636 288.248095 
L 403.160636 288.248095 
L 403.249384 288.345783 
L 403.249384 288.359165 
L 403.360318 288.581661 
L 403.360318 288.581661 
L 403.426879 288.596535 
L 403.426879 288.692697 
L 403.537813 288.918189 
L 403.537813 288.918189 
L 403.670934 289.001312 
L 403.670934 289.029223 
L 403.781869 289.256963 
L 403.781869 289.256963 
L 403.892803 289.360286 
L 403.892803 289.368038 
L 404.003738 289.493612 
L 404.003738 289.493612 
L 404.092485 289.59672 
L 404.092485 289.604657 
L 404.203419 289.744542 
L 404.203419 289.744542 
L 404.358728 289.830174 
L 404.358728 289.855602 
L 404.469662 290.040682 
L 404.469662 290.040682 
L 404.55841 290.150006 
L 404.55841 290.151759 
L 404.669344 290.461242 
L 404.669344 290.461242 
L 404.758091 290.568465 
L 404.758091 290.572289 
L 404.869026 290.807917 
L 404.869026 290.807917 
L 404.891213 290.807917 
L 404.891213 290.918996 
L 405.002147 290.998666 
L 405.002147 290.998666 
L 405.157455 291.076217 
L 405.157455 291.109749 
L 405.26839 291.231716 
L 405.26839 291.231716 
L 405.33495 291.276501 
L 405.33495 291.342797 
L 405.445885 291.584238 
L 405.445885 291.584238 
L 405.579006 291.680008 
L 405.579006 291.695325 
L 405.68994 291.763817 
L 405.68994 291.763817 
L 405.778688 291.855596 
L 405.778688 291.874884 
L 405.889622 291.979526 
L 405.889622 291.979526 
L 405.933996 291.999313 
L 405.933996 292.090627 
L 406.04493 292.420742 
L 406.04493 292.420742 
L 406.155865 292.524457 
L 406.155865 292.531831 
L 406.266799 292.603964 
L 406.266799 292.603964 
L 406.311173 292.641333 
L 406.311173 292.715067 
L 406.422107 292.901991 
L 406.422107 292.901991 
L 406.488668 292.968845 
L 406.488668 293.013069 
L 406.599602 293.393705 
L 406.599602 293.393705 
L 406.621789 293.393705 
L 406.621789 293.50481 
L 406.732724 293.618181 
L 406.732724 293.618181 
L 406.865845 293.718018 
L 406.865845 293.729253 
L 406.976779 293.968622 
L 406.976779 293.968622 
L 406.998966 293.968622 
L 406.998966 294.079712 
L 407.109901 294.221912 
L 407.109901 294.221912 
L 407.287396 294.331583 
L 407.287396 294.333006 
L 407.39833 294.589439 
L 407.39833 294.589439 
L 407.598012 294.688482 
L 407.598012 294.700513 
L 407.708946 294.938976 
L 407.708946 294.938976 
L 407.797694 295.040401 
L 407.797694 295.050058 
L 407.908628 295.149559 
L 407.908628 295.149559 
L 407.975189 295.241523 
L 407.975189 295.260669 
L 408.086123 295.366087 
L 408.086123 295.366087 
L 408.197058 295.450375 
L 408.197058 295.477169 
L 408.307992 295.626154 
L 408.307992 295.626154 
L 408.418926 295.73128 
L 408.418926 295.737254 
L 408.529861 295.8976 
L 408.529861 295.8976 
L 408.640795 295.99187 
L 408.640795 296.008696 
L 408.75173 296.356256 
L 408.75173 296.356256 
L 408.81829 296.3776 
L 408.81829 296.467354 
L 408.929225 296.644181 
L 408.929225 296.644181 
L 409.062346 296.745089 
L 409.062346 296.755279 
L 409.17328 296.903854 
L 409.17328 296.903854 
L 409.217654 296.945588 
L 409.217654 297.01496 
L 409.328588 297.128554 
L 409.328588 297.128554 
L 409.46171 297.220871 
L 409.46171 297.239643 
L 409.572644 297.399341 
L 409.572644 297.399341 
L 409.683579 297.482937 
L 409.683579 297.51043 
L 409.794513 297.833349 
L 409.794513 297.833349 
L 409.861074 297.929169 
L 409.861074 297.944456 
L 409.972008 298.119329 
L 409.972008 298.119329 
L 410.127316 298.227946 
L 410.127316 298.230429 
L 410.23825 298.385694 
L 410.23825 298.385694 
L 410.304811 298.484114 
L 410.304811 298.4968 
L 410.415746 298.609234 
L 410.415746 298.609234 
L 410.548867 298.707369 
L 410.548867 298.720342 
L 410.659801 298.903814 
L 410.659801 298.903814 
L 410.792922 299.008136 
L 410.792922 299.014918 
L 410.903857 299.139931 
L 410.903857 299.139931 
L 410.970417 299.237063 
L 410.970417 299.251029 
L 411.081352 299.4159 
L 411.081352 299.4159 
L 411.170099 299.510297 
L 411.170099 299.527002 
L 411.281034 299.711352 
L 411.281034 299.711352 
L 411.414155 299.819811 
L 411.414155 299.822453 
L 411.525089 299.960401 
L 411.525089 299.960401 
L 411.613837 300.060406 
L 411.613837 300.071508 
L 411.724771 300.17821 
L 411.724771 300.17821 
L 411.813519 300.283821 
L 411.813519 300.289311 
L 411.924453 300.391504 
L 411.924453 300.391504 
L 412.057575 300.481064 
L 412.057575 300.502609 
L 412.168509 300.671607 
L 412.168509 300.671607 
L 412.30163 300.762103 
L 412.30163 300.782716 
L 412.412565 300.919261 
L 412.412565 300.919261 
L 412.479125 300.996865 
L 412.479125 301.030365 
L 412.59006 301.131752 
L 412.59006 301.131752 
L 412.745368 301.228953 
L 412.745368 301.24286 
L 412.856302 301.404942 
L 412.856302 301.404942 
L 412.878489 301.404942 
L 412.878489 301.516045 
L 412.989423 301.672598 
L 412.989423 301.672598 
L 413.100358 301.716209 
L 413.100358 301.783705 
L 413.211292 301.877648 
L 413.211292 301.877648 
L 413.3666 301.982514 
L 413.3666 301.988757 
L 413.477535 302.162021 
L 413.477535 302.162021 
L 413.521909 302.25852 
L 413.521909 302.273129 
L 413.632843 302.399841 
L 413.632843 302.399841 
L 413.699404 302.494852 
L 413.699404 302.51095 
L 413.810338 302.698944 
L 413.810338 302.698944 
L 413.943459 302.738925 
L 413.943459 302.810052 
L 414.054394 303.028604 
L 414.054394 303.028604 
L 414.143141 303.134082 
L 414.143141 303.139715 
L 414.254076 303.367348 
L 414.254076 303.367348 
L 414.276262 303.367348 
L 414.276262 303.478457 
L 414.387197 303.857172 
L 414.387197 303.857172 
L 414.431571 303.919996 
L 414.431571 303.968281 
L 414.542505 304.166043 
L 414.542505 304.166043 
L 414.675626 304.268049 
L 414.675626 304.277153 
L 414.697813 304.380654 
L 414.697813 304.380654 
" clip-path="url(#pc12171157d)" style="fill: none; stroke: #1f77b4; stroke-width: 1.5; stroke-linecap: square"/>
   </g>
   <g id="patch_3">
    <path d="M 57.6 307.584 
L 57.6 41.472 
" style="fill: none; stroke: #000000; stroke-width: 0.8; stroke-linejoin: miter; stroke-linecap: square"/>
   </g>
   <g id="patch_4">
    <path d="M 414.72 307.584 
L 414.72 41.472 
" style="fill: none; stroke: #000000; stroke-width: 0.8; stroke-linejoin: miter; stroke-linecap: square"/>
   </g>
   <g id="patch_5">
    <path d="M 57.6 307.584 
L 414.72 307.584 
" style="fill: none; stroke: #000000; stroke-width: 0.8; stroke-linejoin: miter; stroke-linecap: square"/>
   </g>
   <g id="patch_6">
    <path d="M 57.6 41.472 
L 414.72 41.472 
" style="fill: none; stroke: #000000; stroke-width: 0.8; stroke-linejoin: miter; stroke-linecap: square"/>
   </g>
  </g>
 </g>
 <defs>
  <clipPath id="pc12171157d">
   <rect x="57.6" y="41.472" width="357.12" height="266.112"/>
  </clipPath>
 </defs>
</svg>
